<?xml version="1.0" encoding="UTF-8" standalone="no"?>
<svg
   xmlns:dc="http://purl.org/dc/elements/1.1/"
   xmlns:cc="http://creativecommons.org/ns#"
   xmlns:rdf="http://www.w3.org/1999/02/22-rdf-syntax-ns#"
   xmlns:svg="http://www.w3.org/2000/svg"
   xmlns="http://www.w3.org/2000/svg"
   xmlns:sodipodi="http://sodipodi.sourceforge.net/DTD/sodipodi-0.dtd"
   xmlns:inkscape="http://www.inkscape.org/namespaces/inkscape"
   width="297mm"
   height="297mm"
   viewBox="0 0 297 297"
   version="1.1"
   id="svg8"
   inkscape:version="1.0.2 (e86c870879, 2021-01-15)"
   sodipodi:docname="GPW2026-agentic perl-motiv.svg">
  <defs
     id="defs2">
    <rect
       x="-166.33019"
       y="137.42683"
       width="131.11344"
       height="49.024693"
       id="rect1336" />
    <rect
       x="307.44524"
       y="152.28306"
       width="63.991664"
       height="25.643322"
       id="rect1198" />
    <rect
       x="29.49361"
       y="212.45631"
       width="103.20362"
       height="34.970547"
       id="rect1106" />
    <rect
       x="-88.056641"
       y="166.65206"
       width="222.83763"
       height="50.433247"
       id="rect1082" />
    <rect
       x="62.45024"
       y="90.512496"
       width="129.57561"
       height="14.251939"
       id="rect1055" />
    <rect
       x="-216.2319"
       y="25.38051"
       width="158.89764"
       height="46.715496"
       id="rect847" />
  </defs>
  <sodipodi:namedview
     id="base"
     pagecolor="#006f62"
     bordercolor="#666666"
     borderopacity="1.0"
     inkscape:pageopacity="0"
     inkscape:pageshadow="2"
     inkscape:zoom="0.24748738"
     inkscape:cx="382.59327"
     inkscape:cy="772.36529"
     inkscape:document-units="mm"
     inkscape:current-layer="layer1"
     inkscape:document-rotation="0"
     showgrid="false"
     showguides="true"
     inkscape:guide-bbox="true"
     width="297mm"
     inkscape:snap-global="false"
     inkscape:window-width="1600"
     inkscape:window-height="836"
     inkscape:window-x="0"
     inkscape:window-y="0"
     inkscape:window-maximized="1" />
  <metadata
     id="metadata5">
    <rdf:RDF>
      <cc:Work
         rdf:about="">
        <dc:format>image/svg+xml</dc:format>
        <dc:type
           rdf:resource="http://purl.org/dc/dcmitype/StillImage" />
        <dc:title />
      </cc:Work>
    </rdf:RDF>
  </metadata>
  <g
     inkscape:label="Layer 1"
     inkscape:groupmode="layer"
     id="layer1">
    <g
       aria-label="Agentic Perl"
       transform="matrix(3.6642615,0,0,3.6642615,588.82399,-73.243539)"
       id="text845"
       style="font-style:normal;font-variant:normal;font-weight:normal;font-stretch:normal;font-size:8.46667px;line-height:1.25;font-family:Impact;-inkscape-font-specification:'Impact, Normal';font-variant-ligatures:normal;font-variant-caps:normal;font-variant-numeric:normal;font-variant-east-asian:normal;text-align:center;letter-spacing:0px;word-spacing:0px;white-space:pre;shape-inside:url(#rect847);fill:#006c6c;fill-opacity:1" />
    <path
       style="fill:#000000;stroke-width:0.352778"
       id="path944"
       d="" />
    <g
       id="g990"
       transform="matrix(2.8162593,0.09228393,-0.09228393,2.8162593,-1217.6223,-459.71227)"
       style="fill:#ffffff">
      <path
         id="path972"
         style="fill:#ffffff;stroke-width:1.12716"
         d="m 926.61914,149.48047 c -4.53627,0.1943 -9.27495,1.94208 -12.85547,4.80664 l -1.86133,1.49219 -3.04296,-0.49805 c -2.23443,-0.36306 -4.34405,-0.47028 -7.93946,-0.39844 -5.7762,0.11484 -7.49344,0.46521 -14.63086,3.00196 -8.17953,2.90742 -8.28971,2.92662 -18.72265,3.10156 -6.07423,0.0983 -10.08558,0.30962 -12.02149,0.61914 -9.26339,1.4789 -16.86663,6.63285 -20.82812,12.01953 -5.13674,2.50441 -8.60976,7.08611 -10.42188,12.18945 -0.86641,2.44211 -0.97176,3.08942 -1.00781,6.14063 -0.0538,4.61072 0.28175,7.68949 3.00586,10.4043 16.29807,5.65237 33.01339,-2.51128 33.38867,-3.03126 1.90721,2.2256 -13.53646,9.7947 -24.55078,7.62696 -6.31375,-1.25806 1.4213,6.52994 10.27344,4.81836 2.86232,-0.55332 7.3039,-1.87063 9.7539,-2.89063 l 1.29102,-0.53711 2.29101,1.07422 c 3.21258,1.50457 9.35358,3.57292 13.44141,4.52735 5.52062,1.28865 8.84994,1.74059 15.5625,2.10546 3.46003,0.18692 6.86167,0.49816 7.55859,0.69141 7.02329,4.43205 12.17853,34.88461 7.94532,40.34766 -1.03362,2.26458 -1.85528,5.27286 -0.63086,6.85937 0.64052,-0.86236 2.58494,-2.31384 3.95312,-3.11719 l 2.42578,-0.64257 -2.13867,5.22265 c 0.42094,3.08803 0.30425,6.29866 -0.13867,9.01953 2.05587,-1.70939 2.58036,-2.82798 5.64063,-3.20312 l 0.40429,3.41601 c 0,0 -1.20189,3.25062 -1.73437,7.66407 -0.20059,1.66634 2.42955,6.3461 2.4707,7.36718 2.20249,-1.54021 5.37801,-3.78698 8.1875,-4.80273 0.003,1.9893 -0.40017,3.77009 1.86914,7.57422 1.12656,-1.0814 4.07621,-2.42907 5.48047,-1.63672 0.92017,2.62095 1.68792,3.65233 4.14844,5.16992 3.28368,-4.55762 5.16033,-3.93699 7.86328,-6.0625 -0.26575,1.33646 -0.0107,2.46025 0.72265,3.33789 1.75437,-0.93585 4.91772,-0.60144 9.15821,-3.42187 6.72847,-4.47524 14.77256,-12.21203 17.29101,-15.55078 -14.61508,37.28555 -17.57489,79.36922 -15.77929,123.40429 -18.91279,-35.39522 -42.05643,-78.64543 -41.98047,-108.5 -1.26859,-2.71032 -2.01353,-2.38032 -2.9668,-1.80273 -1.50713,-2.54465 0.0109,-7.89133 0.10547,-8.41406 -1.53011,1.37989 -1.85851,0.8817 -3.4668,2.16992 l -0.27929,-4.79492 c -0.1838,-3.10595 -2.47758,-5.93714 -2.10157,-8.04688 -0.76123,0.34161 -1.37031,0.45709 -2.4414,1.60156 -1.45035,-1.25127 -0.95704,-8.12894 1.18359,-11.27148 -2.68077,1.28967 -5.53056,2.40156 -4.45898,3.04492 -0.16473,1.70605 -18.21956,11.44287 -35.39258,21.69727 -1.39272,36.39619 -7.77488,62.24198 -17.33008,86.17578 4.81227,0.12506 8.57731,0.98219 11.44922,3.96875 3.42228,3.55895 4.5723,9.23484 5.97461,14.74804 2.41177,9.47789 2.23915,19.90054 2.60937,27.04102 l 25.75,-33.72266 c 0.64738,2.34951 1.19685,4.99603 1.38086,5.40235 0.29332,0.57648 6.28882,14.69805 13.41211,31.36523 10.99854,45.14561 11.96271,85.27862 12.22852,125.0625 2.30585,0.23434 8.58791,2.0914 15.85547,3.17774 2.36558,22.80962 4.3946,52.75072 5.23437,60.97265 2.71145,27.34631 4.35309,47.93092 4.70508,58.94336 0.15768,6.06231 0.27366,6.64508 3.5625,19.08985 4.91183,18.6443 4.94582,18.91413 5.43945,47.3457 0.10257,5.03609 0.41662,10.43541 0.72071,12.04883 0.34795,1.61464 1.89218,6.0731 3.45898,9.91015 1.56533,3.88166 2.95151,7.84716 3.0957,8.87696 0.31431,2.63807 -0.75961,5.49742 -5.26172,13.76758 l -3.93359,7.21874 -0.0996,4.67383 c -0.0778,3.73862 0.0532,5.16997 0.79102,7.10938 l 0.90039,2.43164 -1.90235,3.63476 c -3.99239,7.6634 -6.94591,10.86395 -22.66406,24.33399 -5.63711,4.84822 -10.91383,9.48431 -11.69726,10.30469 -3.31955,3.45433 -4.29952,6.22957 -2.89844,8.32421 0.93217,1.45584 5.44117,3.78486 8.88672,4.6543 3.84468,0.91876 13.32165,1.22981 18.95507,0.56836 11.26708,-1.32322 17.5902,-4.01047 27.23438,-11.5332 3.97708,-3.12154 3.97884,-3.1213 7.28125,-3.32422 4.64158,-0.29341 10.70015,-1.69904 16.02148,-3.70703 l 4.50977,-1.72461 -1.00391,-12.81445 c -1.26692,-15.71883 -1.29638,-14.82159 -0.0488,-14.83399 0.88989,0.0292 0.93597,-0.013 0.18945,-0.34961 -0.7481,-0.29174 -0.78185,-0.87077 -0.55664,-6.11914 0.31211,-6.804 1.30004,-16.65971 2.08984,-20.375 0.73807,-3.49439 4.45413,-13.57328 4.83985,-13.11523 0.3839,0.50252 1.1065,7.03054 1.0234,9.5664 -0.036,1.11232 -0.5048,3.18994 -1.04098,4.59766 -1.90129,5.01507 -4.40464,18.87434 -5.71485,31.70312 l -0.45117,4.21485 2.75,7.21679 c 1.5193,3.9247 2.91684,7.40009 3.17383,7.72071 0.21416,0.27447 0.82587,0.61023 1.35737,0.71289 1.382,0.22345 1.52,2.54206 0.8574,14.63476 -0.6001,11.51562 -0.3514,13.44042 1.9141,14.98438 0.785,0.51523 1.4738,1.20521 1.5977,1.52148 0.1228,0.31581 -0.1736,2.57718 -0.6133,5.10157 -1.4594,7.83537 -0.5476,12.67721 3.1933,16.76367 3.3105,3.62705 8.0124,5.56106 15.0274,6.23633 8.3465,0.80798 15.1598,-0.52743 19.0508,-3.74024 5.9056,-4.88375 5.5663,-9.48301 -2.3907,-34.41797 -2.3429,-7.3365 -4.2728,-13.67684 -4.2597,-14.07812 0.011,-0.35594 0.8248,-2.02418 1.8554,-3.59375 4.9842,-8.03176 8.2016,-15.13932 8.9356,-19.88086 0.333,-1.99329 0.1919,-3.15798 -0.6465,-6.125 -3.865,-13.88884 -3.6778,-16.82007 2.6992,-37.45508 1.8948,-6.17322 3.6964,-12.26155 4.0059,-13.54297 0.7259,-2.87121 0.9618,-10.07888 0.8066,-23 -0.3411,-29.00558 -0.3987,-97.99652 -0.1445,-132.90625 0.1048,-11.52947 0.6822,-58.2186 1.123,-78.08008 2.6138,-0.96437 5.2264,-1.95145 7.8301,-2.97656 0.04,-0.23421 4.5234,-3.09475 10.0176,-6.33398 l 9.9297,-5.86524 -1.4531,-9.15039 c -0.7975,-5.05971 -8.1753,-1.10955 -17.3301,-50.07422 -2.2017,-5.03969 -3.0955,-11.02521 -3.3535,-13.76562 -15.2601,3.16423 -32.1993,9.67422 -48.7325,15.375 -4.6245,0.39742 -8.2517,-8.45043 -12.23235,-14.03711 -4.9179,1.20574 -16.89932,2.28867 -30.53906,3.20508 -9.10871,0.612 -20.53271,2.42518 -25.2793,-0.55274 -1.35213,-3.39685 -0.51474,-6.66347 1.32227,-8.82812 1.83696,-2.16465 4.4084,-3.50217 6.78125,-4.50977 0.5677,-0.24087 0.80718,-0.28898 1.34765,-0.49219 -1.05191,-0.65371 -2.16289,-2.52227 -2.28515,-3.77539 -0.19822,-7.73519 8.11826,-13.23619 15.33594,-13.88476 18.28357,-1.64296 21.0085,-0.44509 26.82812,-4.63867 1.16909,-2.49124 2.38651,-4.56736 4.12695,-5.68164 2.09641,-1.34216 4.39458,-2.06754 7.92968,-3.89454 l 1.914,-0.98242 0.8907,1.95508 c 2.0845,4.59322 3.5972,6.75943 4.7011,8.95508 0.6868,1.36632 1.0602,4.58022 1.2481,6.30664 11.3887,-3.84177 21.1792,-13.28962 28.7422,-20.75586 2.4873,-8.12437 1.1407,-20.1467 -0.1836,-27.38281 -0.614,-3.17539 -1.0188,-5.69978 -0.9668,-5.68946 0.1093,0.0779 2.1673,5.8026 4.6894,12.76758 2.4878,6.99986 4.6833,13.19628 4.9414,13.82617 0.4037,0.91894 -0.137,1.83959 -4.205,7.56641 -7.4367,11.523 -22.4032,19.15138 -33.3457,22.60938 l -3.9825,4.85546 0.3418,-6.34765 c 0.233,-3.14244 -0.048,-4.13776 -0.9414,-5.91602 -0.7109,-1.41411 -2.2253,-5.60729 -3.7929,-8.74023 -2.3816,1.12617 -4.2722,2.03943 -5.35157,2.73047 -1.42157,0.91012 -2.61002,3.38754 -3.77539,6.4414 l -0.41016,1.08008 c -6.8643,3.49174 -17.10322,3.26261 -26.39843,4.07617 -6.10064,0.35465 -9.25061,3.47622 -11.55664,5.25977 -3.3408,2.58372 -3.4887,5.36592 -3.16407,7.00586 1.11525,1.37006 4.2515,1.58814 6.61719,1.74023 -7.10842,2.39799 -13.46845,5.868 -13.40625,11.46485 9.56245,3.35545 10.73971,1.58366 28.28125,-0.38282 10.42965,-0.47355 21.20397,-0.40975 28.68947,-5.48242 1.5585,6.59775 3.061,13.27837 7.2558,15.94922 26.5237,-10.03008 45.0253,-13.47938 66.9473,-27.94727 6.9663,-6.72406 17.9061,-9.34577 20.8984,-20.17187 l -0.7344,-2.39844 c -0.3933,-1.32938 -2.5781,-8.88531 -4.8769,-16.7832 -15.709,-54.72374 -28.7852,-90.91364 -37.375,-103.44336 -3.3734,-5.01475 -9.1779,-11.10248 -13.3574,-14.19336 -12.0359,-8.78 -4.0503,-9.5225 -29.752,-10.89844 -3.2366,-0.18204 -11.8527,-1.29322 -21.45113,-2.78906 -2.87459,-2.49327 -11.02013,-6.58406 -12.22461,-5.65039 -1.16615,0.90396 -1.34429,1.6984 -2.05273,2.39648 -2.04697,-1.60596 -3.13772,-0.78407 -5.29297,-3.33984 -7.58465,-8.99406 -6.47845,-14.77937 -12.14063,-28.14648 -8.13567,-19.20647 -11.19588,-25.34973 -16.70898,-33.54688 -2.41302,-3.58773 -3.66613,-5.15354 -6.87305,-8.57422 -1.51738,-1.61833 -1.11154,-2.36372 -2.46289,-3.43945 0.41641,-1.359 0.14768,-2.52089 0.8125,-5.54297 1.00465,-4.56686 0.91848,-6.02426 -0.44531,-7.74805 -1.36144,-1.72083 -2.46691,-2.2198 -5.37109,-2.3789 -0.63585,-0.037 -1.2797,-0.0394 -1.92774,-0.0117 z m -31.42383,21.39258 c 0.34882,-0.009 0.69263,-7.7e-4 1.03125,0.0234 0.38692,0.0275 0.76778,0.0743 1.13672,0.14649 3.29108,0.64362 7.49616,3.22747 7.49414,4.58984 -0.006,0.58372 -0.13745,0.66749 -1.5664,0.96485 -0.45494,0.0959 -0.81697,0.36873 -0.82227,0.62109 -0.0159,1.53985 -2.68619,4.52211 -4.53516,5.0625 l -0.002,-0.002 c -2.55316,0.74746 -4.18007,0.5662 -6.29883,-0.70508 -1.42319,-0.854 -2.55785,-2.30782 -3.13281,-4.01172 -0.24286,-0.72166 -0.55548,-1.03286 -1.17773,-1.16406 -1.9205,-0.40488 -1.73675,-1.55104 0.49218,-3.05078 2.28633,-1.53837 4.93914,-2.41009 7.38086,-2.47461 z m 74.08985,125.14843 a 2.0707841,2.0707841 0 0 1 1.13867,0.35743 l 15.28515,10.28125 0.35352,1.28515 h 63.1582 l -17.3613,30.07031 h -37.58206 l 0.42969,9.28516 h 45.46097 a 2.0707841,2.0707841 0 0 1 2.0683,2.07422 2.0707841,2.0707841 0 0 1 -2.0683,2.06641 h -4.4375 a 6.3207853,6.3207853 0 0 1 2.7558,5.21875 6.3207853,6.3207853 0 0 1 -6.3203,6.32226 6.3207853,6.3207853 0 0 1 -6.3203,-6.32226 6.3207853,6.3207853 0 0 1 2.7539,-5.21875 h -32.30272 a 6.3207853,6.3207853 0 0 1 2.75781,5.21875 6.3207853,6.3207853 0 0 1 -6.32227,6.32226 6.3207853,6.3207853 0 0 1 -6.32226,-6.32226 6.3207853,6.3207853 0 0 1 4.30664,-5.98828 l -0.57032,-12.33399 -8.01757,-29.10351 -14.01368,-9.42579 a 2.0707841,2.0707841 0 0 1 -0.57031,-2.86914 2.0707841,2.0707841 0 0 1 1.65625,-0.91601 2.0707841,2.0707841 0 0 1 0.084,-0.002 z m -197.89063,23.60547 c -8.16715,0.89714 -14.86323,1.07142 -17.4707,12.60938 -9.64332,-4.07705 -16.00992,0.90128 -24.72852,-4.75195 -10.4813,-1.69577 -27.67584,3.80314 -16.25,10.16406 6.06846,3.37825 -16.45191,-3.69651 -16.3164,8.39453 9.72492,6.56117 15.55548,12.21414 21.87109,14.3457 16.02174,5.40747 24.98951,0.0383 34.17773,1.24024 0.50765,5.58047 -3.75704,7.23972 -5.85742,10.67578 11.42115,18.44317 27.76079,28.70164 42.33789,41.89062 1.6046,-6.46552 4.08984,-13.79394 5.26953,-20.90429 1.31213,-7.90852 0.50335,-18.08096 -4.1289,-24.08204 -5.88437,-5.12391 -9.98219,-13.54971 -16.03711,-21.89843 -0.38769,-3.02152 -4.73477,-1.47023 -6.00195,-2.73047 0.96751,-2.04657 -0.93075,-3.10276 1.21093,-7.3711 2.08755,-4.16036 2.32469,-10.72846 1.92383,-17.58203 z m 22.05664,51.24219 c 5.02943,6.58393 6.13582,14.94938 4.79688,23.01953 -1.42638,8.59741 -6.6003,17.49664 -8,24.28321 l -0.0801,-0.043 -13.12695,55.7832 c 30.79349,-9.31648 59.99501,4.20353 88.87304,0.82227 l -3.67578,-55.07422 c -0.76718,-7.31392 -1.60041,-20.29594 -4.24609,-30.69727 -1.33598,-5.25236 -3.33253,-9.86585 -6.21485,-12.86328 -2.06565,-2.14811 -5.94256,-3.94502 -9.96875,-4.50586 -13.84393,1.01191 -31.45817,-0.0527 -48.35742,-0.72461 z m 201.88672,232.17774 c 0.0981,-0.26395 0.58448,5.27481 1.02149,12.32617 0.43699,7.05136 1.64501,25.8852 2.7246,41.86523 2.94242,44.76836 2.95742,48.42173 0.76758,73.11328 -1.32441,14.56527 -1.35224,15.41193 -0.86328,22.24219 0.31775,3.92985 0.64213,7.58971 0.75586,8.2168 0.49396,2.59929 -1.0486,-0.61232 -2.25195,-4.66016 -1.84099,-6.34006 -2.45645,-12.0167 -3.10547,-28.91797 -0.37861,-8.83105 -0.2378,-36.26136 0.50781,-99.79297 0.15859,-13.13364 0.34936,-24.1282 0.44336,-24.39257 z"
         transform="matrix(0.09384773,-0.00307523,0.00307523,0.09384773,438.17589,151.57803)" />
      <path
         style="fill:#ffffff;fill-opacity:1;stroke:none;stroke-width:0.200399;stroke-linecap:butt;stroke-linejoin:miter;stroke-miterlimit:4;stroke-dasharray:none;stroke-opacity:1"
         d="m 525.10645,176.36639 c -10e-4,0.57267 0.0842,1.13189 0.46078,1.64622 0.46306,-0.14661 0.88941,-0.36663 1.22981,-0.75857 0.17454,0.0993 0.34806,0.18409 0.49933,-0.0452 0.43462,0.35109 0.87456,0.56339 1.32071,0.61332 0.19796,-0.59398 0.096,-1.17118 -0.13729,-1.74105 -0.43518,0.10651 -0.84227,0.28857 -1.2086,0.58021 -0.44098,-0.21652 -0.60101,-0.0908 -0.7114,0.0955 -0.48377,-0.15436 -0.96557,-0.37977 -1.45334,-0.39046 z"
         id="path982"
         sodipodi:nodetypes="cccccccccc" />
    </g>
    <g
       id="g1073"
       transform="matrix(1.2068171,0,0,1.2068171,44.970954,20.230423)"
       style="fill:#005a60;fill-opacity:1;stroke-width:1;stroke-miterlimit:4;stroke-dasharray:none">
      <g
         id="g997"
         transform="translate(3.7146288,0.11901846)"
         style="fill:#005a60;fill-opacity:1;stroke-width:1;stroke-miterlimit:4;stroke-dasharray:none" />
    </g>
    <g
       id="g1253"
       transform="matrix(0.75537449,0,0,0.75537449,50.573349,-4.8793102)">
      <path
         id="rect1030"
         style="fill:#ffffff;fill-opacity:1;stroke:none;stroke-width:6.83563;stroke-miterlimit:4;stroke-dasharray:none;stroke-opacity:1;paint-order:markers stroke fill"
         d="m 699.0332,262.93359 v 4.61524 h 22.64063 v 9.90039 h 2.55469 v -14.51563 z m 35.65039,3.41211 v 3.49414 h 21.88868 v 31.73633 h 3.30664 V 266.3457 Z m -41.625,4.6211 v 35.23047 h 25.19727 V 270.9668 Z m 34.90039,2.29101 v 4.19141 h 6.72461 15.26953 v 24.12695 6.91406 h 3.20118 v -6.91406 -28.31836 h -18.47071 z m -6.61914,7.60938 v 35.23242 h 25.19532 v -14.52344 -20.70898 h -11.85157 z"
         transform="matrix(0.3730455,0,0,0.3730455,-78.225427,-45.543827)" />
      <g
         id="rect1006"
         style="opacity:1" />
    </g>
    <g
       aria-label="How may I assist you?"
       transform="matrix(3.0912966,0,0,3.0912966,-285.92274,-195.42322)"
       id="text1053"
       style="font-style:normal;font-variant:normal;font-weight:bold;font-stretch:semi-condensed;font-size:3.52778px;line-height:1.25;font-family:'DejaVu Sans';-inkscape-font-specification:'DejaVu Sans, Bold Semi-Condensed';font-variant-ligatures:normal;font-variant-caps:normal;font-variant-numeric:normal;font-variant-east-asian:normal;text-align:center;letter-spacing:0px;word-spacing:0px;white-space:pre;shape-inside:url(#rect1055);fill:#006c6c;fill-opacity:1" />
    <text
       xml:space="preserve"
       id="text1080"
       style="font-style:normal;font-variant:normal;font-weight:bold;font-stretch:normal;font-size:3.52778px;line-height:1.25;font-family:Arial;-inkscape-font-specification:'Arial, Bold';font-variant-ligatures:normal;font-variant-caps:normal;font-variant-numeric:normal;font-variant-east-asian:normal;text-align:center;letter-spacing:0px;word-spacing:0px;white-space:pre;shape-inside:url(#rect1082);fill:#ffffff;"
       transform="matrix(4.305773,0,0,4.9545981,4.3634662,-658.28205)"><tspan
         x="-0.62332685"
         y="169.83001"><tspan
           style="font-style:normal;font-variant:normal;font-weight:bold;font-stretch:normal;font-size:3.52778px;font-family:Arial;-inkscape-font-specification:'Arial, Bold';font-variant-ligatures:normal;font-variant-caps:normal;font-variant-numeric:normal;font-variant-east-asian:normal;fill:#ffffff">German Perl Workshop 2026</tspan></tspan></text>
    <g
       id="g1424"
       transform="translate(64.653708,-0.50906116)">
      <path
         style="fill:#ffffff;stroke-width:0.0802476"
         d="m 156.71931,201.43596 c -0.33437,0.15432 0.0702,-1.14657 -0.0429,-1.35826 -0.0837,-0.15618 -0.13286,-0.17219 -0.24463,-0.0795 -0.14799,0.12282 -0.18045,0.66593 -0.0771,1.2909 0.0672,0.40625 0.68656,-0.002 0.36479,0.14679 z m -1.22057,-0.41929 c 0.16704,-0.19024 0.3037,-0.42984 0.3037,-0.53242 0,-0.26862 -0.21279,-0.36426 -0.33644,-0.1512 -0.0572,0.0984 -0.22499,0.32116 -0.37299,0.49488 -0.14802,0.1737 -0.26911,0.36507 -0.26911,0.42523 0,0.22949 0.38378,0.095 0.67484,-0.23649 z m 2.75006,0.23649 c 0,-0.0601 -0.12109,-0.25153 -0.2691,-0.42523 -0.148,-0.17372 -0.31958,-0.39971 -0.38129,-0.5022 -0.0828,-0.13745 -0.14194,-0.15796 -0.22557,-0.0782 -0.15465,0.14748 -0.0377,0.56171 0.24486,0.86648 0.23345,0.25189 0.6311,0.33956 0.6311,0.13912 z m -3.86752,-1.45257 c 0.0609,0 -0.13053,-0.21267 -0.36119,-0.35755 -2.16235,-1.35814 -3.35889,-2.59506 -3.89406,-4.02546 -0.26655,-0.71238 -0.39172,-1.81876 -0.29449,-2.60282 0.16783,-1.35325 0.86737,-2.51345 2.71018,-4.4949 2.09683,-2.25457 2.58476,-2.83598 2.84607,-3.3913 0.22916,-0.48703 0.25139,-0.64813 0.25926,-1.87874 0.006,-0.8737 -0.0299,-1.38449 -0.10097,-1.45565 -0.0808,-0.0808 -0.12133,0.24477 -0.15451,1.24267 -0.0385,1.15819 -0.0768,1.414 -0.26648,1.78208 -0.34594,0.67118 -0.98203,1.28179 -2.63317,2.52768 -1.86407,1.40655 -2.64139,2.12179 -3.25472,2.99476 -0.72638,1.03392 -0.92212,1.71899 -0.91348,3.19715 0.006,1.06448 0.0406,1.31591 0.26504,1.93782 0.62181,1.72314 2.04191,3.17411 3.97104,4.05739 1.09314,0.5005 1.59789,0.46687 1.82145,0.46687 z m 6.31388,-0.55311 c 1.14069,0 1.21578,-0.64777 2.11258,-1.54512 0.75109,-0.75156 1.06065,-1.14209 1.29401,-1.63255 0.6657,-1.39906 0.80298,-3.13352 0.35425,-4.47542 -0.47502,-1.42049 -1.47484,-2.46355 -3.95655,-4.12771 -2.90301,-1.94666 -3.44133,-2.67118 -3.13635,-4.22134 0.11341,-0.57613 0.0747,-0.84422 -0.0844,-0.58675 -0.0588,0.0952 -0.12526,0.0633 -0.26378,-0.12686 -0.18368,-0.25219 -0.18509,-0.23779 -0.18509,1.87589 0,2.39758 -0.0194,2.53707 -0.77891,5.60385 -0.61061,2.46558 -0.69668,3.194 -0.55038,4.65756 0.16388,1.63914 0.7363,3.67645 1.14894,4.08907 0.13129,0.13129 0.45244,0.28998 0.71367,0.35265 0.26124,0.0627 0.71047,0.26742 0.9983,0.45498 0.66995,0.43661 0.69164,-0.31825 2.33361,-0.31825 z m -0.88068,-0.36158 c 0,-0.0705 0.19999,-0.36248 0.44444,-0.64885 0.6655,-0.77967 0.96638,-1.25138 1.30265,-2.04225 0.40489,-0.95226 0.53667,-1.78171 0.48446,-3.04922 -0.0398,-0.96316 -0.0734,-1.11352 -0.40619,-1.81437 -0.53456,-1.12563 -1.07626,-1.82452 -2.42763,-3.13206 -1.26789,-1.22677 -1.67641,-1.70243 -1.79407,-2.08896 -0.10012,-0.3287 0.0596,-0.23716 0.4896,0.28067 0.2011,0.2422 0.96559,0.89612 1.69884,1.45317 0.73326,0.55704 1.59038,1.2616 1.9047,1.56566 1.75109,1.69399 2.33715,3.76116 1.6368,5.77335 -0.46885,1.34701 -1.49256,2.71741 -2.56481,3.43344 -0.63692,0.42531 -0.76879,0.47153 -0.76879,0.26942 z m -4.25874,0.22937 c 0.0661,-0.10694 -0.25874,-0.78534 -0.58724,-1.22654 -0.43255,-0.58092 -1.01444,-1.77773 -1.275,-2.62239 -0.24466,-0.7931 -0.26174,-0.95517 -0.21643,-2.05493 0.0613,-1.48615 0.2803,-2.15605 1.23174,-3.76665 1.5875,-2.68727 1.63381,-2.85653 1.62551,-5.9406 -0.01,-3.39213 -0.17009,-4.04029 -0.24299,-0.97854 -0.0777,3.26401 -0.28609,3.9377 -1.83927,5.94751 -1.65608,2.14296 -1.95545,2.64157 -2.23179,3.7171 -0.24791,0.96487 -0.14164,2.34724 0.26044,3.38786 0.40596,1.05069 1.26515,2.18716 2.2768,3.01158 0.7732,0.63009 0.89424,0.69383 0.99823,0.5256 z"
         id="path1102"
         sodipodi:nodetypes="sssssssssssssssssssssssssssssssssssssssssssssssssssssssssssssssssssssssssssss" />
      <g
         aria-label="Berlin"
         transform="matrix(10.203469,0,0,8.4757359,-695.75679,-1609.5842)"
         id="text1104"
         style="font-style:normal;font-variant:normal;font-weight:bold;font-stretch:normal;font-size:3.52778px;line-height:1.25;font-family:Arial;-inkscape-font-specification:'Arial, Bold';font-variant-ligatures:normal;font-variant-caps:normal;font-variant-numeric:normal;font-variant-east-asian:normal;text-align:center;letter-spacing:0px;word-spacing:0px;text-anchor:middle;white-space:pre;shape-inside:url(#rect1106);fill:#ffffff">
        <path
           d="m 76.355249,213.10944 h 1.009413 q 0.299724,0 0.44614,0.0258 0.14814,0.0241 0.26355,0.10335 0.117134,0.0792 0.194648,0.21187 0.07751,0.13092 0.07751,0.29456 0,0.17742 -0.09646,0.32556 -0.09474,0.14814 -0.258382,0.22221 0.230822,0.0672 0.354845,0.2291 0.124024,0.16192 0.124024,0.38068 0,0.17226 -0.08096,0.3359 -0.07924,0.16192 -0.218764,0.2601 -0.137804,0.0965 -0.341065,0.11886 -0.127468,0.0138 -0.614949,0.0172 h -0.859552 z m 0.509874,0.4203 v 0.58394 h 0.334175 q 0.298001,0 0.370348,-0.009 0.130913,-0.0155 0.204983,-0.0896 0.07579,-0.0758 0.07579,-0.19809 0,-0.11714 -0.06546,-0.18948 -0.06373,-0.0741 -0.191203,-0.0896 -0.07579,-0.009 -0.435805,-0.009 z m 0,1.00425 v 0.67524 h 0.471979 q 0.275607,0 0.349677,-0.0155 0.113688,-0.0207 0.184313,-0.0999 0.07235,-0.081 0.07235,-0.21531 0,-0.11369 -0.05512,-0.19293 -0.05512,-0.0792 -0.160197,-0.11541 -0.103353,-0.0362 -0.451308,-0.0362 z"
           style="font-style:normal;font-variant:normal;font-weight:bold;font-stretch:normal;font-size:3.52778px;font-family:Arial;-inkscape-font-specification:'Arial, Bold';font-variant-ligatures:normal;font-variant-caps:normal;font-variant-numeric:normal;font-variant-east-asian:normal;fill:#ffffff"
           id="path1255" />
        <path
           d="m 79.957098,215.05247 0.482314,0.081 q -0.09302,0.26528 -0.294556,0.4048 -0.199815,0.13781 -0.501261,0.13781 -0.477146,0 -0.706245,-0.31179 -0.180868,-0.24977 -0.180868,-0.63045 0,-0.45475 0.237712,-0.71141 0.237711,-0.25838 0.601169,-0.25838 0.408244,0 0.644233,0.27044 0.23599,0.26871 0.225654,0.8251 h -1.212674 q 0.0052,0.21532 0.117133,0.33589 0.111966,0.11886 0.279053,0.11886 0.113688,0 0.191203,-0.062 0.07751,-0.062 0.117133,-0.19982 z m 0.02756,-0.4892 q -0.0052,-0.21015 -0.10852,-0.31867 -0.103353,-0.11025 -0.251492,-0.11025 -0.158475,0 -0.261828,0.11542 -0.103353,0.11541 -0.10163,0.3135 z"
           style="font-style:normal;font-variant:normal;font-weight:bold;font-stretch:normal;font-size:3.52778px;font-family:Arial;-inkscape-font-specification:'Arial, Bold';font-variant-ligatures:normal;font-variant-caps:normal;font-variant-numeric:normal;font-variant-east-asian:normal;fill:#ffffff"
           id="path1257" />
        <path
           d="m 81.32308,215.63469 h -0.484036 v -1.82934 h 0.449585 v 0.2601 q 0.115411,-0.18431 0.206706,-0.24288 0.09302,-0.0586 0.210151,-0.0586 0.165364,0 0.318671,0.0913 l -0.149862,0.42203 q -0.122301,-0.0792 -0.227376,-0.0792 -0.10163,0 -0.172255,0.0568 -0.07062,0.0551 -0.111966,0.20154 -0.03962,0.14642 -0.03962,0.61323 z"
           style="font-style:normal;font-variant:normal;font-weight:bold;font-stretch:normal;font-size:3.52778px;font-family:Arial;-inkscape-font-specification:'Arial, Bold';font-variant-ligatures:normal;font-variant-caps:normal;font-variant-numeric:normal;font-variant-east-asian:normal;fill:#ffffff"
           id="path1259" />
        <path
           d="m 82.232585,215.63469 v -2.52525 h 0.484037 v 2.52525 z"
           style="font-style:normal;font-variant:normal;font-weight:bold;font-stretch:normal;font-size:3.52778px;font-family:Arial;-inkscape-font-specification:'Arial, Bold';font-variant-ligatures:normal;font-variant-caps:normal;font-variant-numeric:normal;font-variant-east-asian:normal;fill:#ffffff"
           id="path1261" />
        <path
           d="m 83.212716,215.63469 v -1.82934 h 0.484036 v 1.82934 z"
           style="font-style:normal;font-variant:normal;font-weight:bold;font-stretch:normal;font-size:3.52778px;font-family:Arial;-inkscape-font-specification:'Arial, Bold';font-variant-ligatures:normal;font-variant-caps:normal;font-variant-numeric:normal;font-variant-east-asian:normal;fill:#ffffff"
           id="path1263"
           sodipodi:nodetypes="ccccc" />
        <path
           d="m 85.856828,215.63469 h -0.484036 v -0.93362 q 0,-0.29628 -0.03101,-0.3824 -0.03101,-0.0879 -0.10163,-0.13608 -0.0689,-0.0482 -0.167088,-0.0482 -0.125746,0 -0.225654,0.0689 -0.09991,0.0689 -0.137803,0.18259 -0.03617,0.11369 -0.03617,0.4203 v 0.82854 h -0.484036 v -1.82934 h 0.449585 v 0.26872 q 0.239434,-0.31006 0.602892,-0.31006 0.160197,0 0.292833,0.0586 0.132637,0.0568 0.199816,0.14642 0.0689,0.0896 0.09474,0.20326 0.02756,0.11369 0.02756,0.32556 z"
           style="font-style:normal;font-variant:normal;font-weight:bold;font-stretch:normal;font-size:3.52778px;font-family:Arial;-inkscape-font-specification:'Arial, Bold';font-variant-ligatures:normal;font-variant-caps:normal;font-variant-numeric:normal;font-variant-east-asian:normal;fill:#ffffff"
           id="path1265" />
      </g>
    </g>
    <g
       id="g1141"
       transform="matrix(0.3799602,0,0,0.3799602,146.07604,-52.142428)">
      <path
         id="rect1110"
         style="fill:#ffffff;fill-opacity:1;stroke:none;stroke-width:2.85723;stroke-miterlimit:4;stroke-dasharray:none;stroke-opacity:1;paint-order:markers stroke fill"
         d="m 745.74414,169.80273 v 16.07618 l -8.41016,11.42187 h -9.60937 v 12.73242 h 12.73437 v -12.73242 h -0.002 l 8.36719,-11.36523 h 3.48242 l 0.13281,11.36523 h -4.99609 v 12.73242 h 12.73437 v -12.73242 h -5.22461 l -0.13085,-11.36523 h 4.16406 l 8.17578,11.57226 v 12.52539 h 5.06445 l 0.0859,13.82422 h -4.28516 v 11.00391 h 11.00196 v -11.00391 h -4.20118 l -0.0859,-13.82422 h 5.15234 v -12.73242 h -9.80078 l -8.2168,-11.63281 v -15.86524 z"
         transform="matrix(0.74162782,0,0,0.74162782,-380.7696,47.261876)" />
    </g>
    <g
       id="g1192"
       transform="matrix(0.44664337,0,0,0.44664337,150.35497,40.482252)">
      <path
         id="rect1177"
         style="fill:#ffffff;fill-opacity:1;stroke:none;stroke-width:1.4392;stroke-linecap:round;stroke-miterlimit:4;stroke-dasharray:none;stroke-opacity:1;paint-order:markers stroke fill"
         d="m 911.10938,109.4375 c -2.45875,0 -4.4375,1.9807 -4.4375,4.43945 v 43.89453 c 0,2.45876 1.97875,4.4375 4.4375,4.4375 h 79.01367 c 2.45874,0 4.43945,-1.97874 4.43945,-4.4375 v -43.89453 c 0,-2.45875 -1.98071,-4.43945 -4.43945,-4.43945 z m 40.65039,8.11133 h 0.002 c 2.10212,0.0386 2.14685,0.79043 2.98437,4.26367 l 1.00196,4.15234 2.21484,0.79688 c 1.21817,0.43868 2.713,1.0137 3.32227,1.2793 0.86328,0.37633 1.34295,0.25653 2.17187,-0.54297 1.7914,-1.72779 5.45895,-4.0806 6.12305,-3.92969 0.63856,0.1451 3.60609,2.45713 4.35156,3.39062 0.41908,0.52477 -1.16302,4.51772 -2.71484,6.85157 -0.62886,0.94589 -0.50981,1.36348 1.21679,4.28515 l 1.91407,3.24024 2.11914,-0.0684 c 1.16558,-0.0367 3.07297,0.0188 4.24023,0.12109 l 2.12305,0.18555 0.59375,2.95117 c 0.32634,1.62372 0.42155,3.21078 0.21094,3.52539 -0.34186,0.51108 -6.01369,3.2113 -7.06836,3.36524 -0.20793,0.0304 -0.59932,1.41788 -0.91993,3.16406 h -12.54296 c 1.53473,-5.4117 -0.34926,-11.75371 -6.27344,-15.03906 -7.11329,-3.9448 -16.05302,-0.28278 -18.51758,7.58593 -0.76955,2.45713 -0.75297,5.05465 -0.0703,7.45313 H 925.6543 c -0.17027,-0.83925 -0.32147,-1.55891 -0.38868,-1.80664 -0.12193,-0.44897 -1.16594,-1.09707 -2.61523,-1.625 -4.37642,-1.59415 -5.18181,-2.16703 -5.16406,-3.67774 0.009,-0.7532 0.18183,-2.20329 0.38281,-3.22265 0.34371,-1.74244 0.47448,-1.86998 2.18359,-2.13672 0.99981,-0.15603 3.02678,-0.27862 4.50391,-0.27149 2.09661,0.01 2.72596,-0.16873 2.87305,-0.8164 0.10374,-0.45627 0.8405,-1.86762 1.63867,-3.13672 l 1.45312,-2.3086 -1.45312,-2.48437 c -0.79827,-1.36679 -1.68238,-3.10499 -1.96484,-3.86328 -0.49642,-1.33247 -0.46939,-1.42201 0.75195,-2.625 1.85789,-1.82966 3.34899,-2.87343 3.91797,-2.74414 0.27595,0.0627 1.89055,1.17496 3.58984,2.47265 l 3.0918,2.35938 3.32031,-1.25391 3.32031,-1.2539 0.9375,-4.20117 0.9375,-4.20313 1.89258,-0.10742 c 1.26409,-0.0715 2.19526,-0.13739 2.89649,-0.125 z"
         transform="matrix(0.63090392,0,0,0.63090392,-313.76104,-107.59431)" />
      <path
         id="rect1179"
         style="fill:#ffffff;fill-opacity:1;stroke:none;stroke-width:0.908;stroke-linecap:round;stroke-miterlimit:4;stroke-dasharray:none;stroke-opacity:1;paint-order:markers stroke fill"
         d="m 276.33167,-5.7723951 h 19.31022 v 5.15120264 h -19.31022 z" />
      <path
         id="rect1181"
         style="fill:#ffffff;fill-opacity:1;stroke:none;stroke-width:0.639827;stroke-linecap:round;stroke-miterlimit:4;stroke-dasharray:none;stroke-opacity:1;paint-order:markers stroke fill"
         d="M 264.80252,-1.2225493 H 307.171 v 1.91995559 h -42.36848 z" />
    </g>
    <g
       id="g1149"
       transform="matrix(1.0650295,0,0,1.0650295,-9.9070861,10.467163)">
      <path
         style="color:#000000;font-style:normal;font-variant:normal;font-weight:normal;font-stretch:normal;font-size:medium;line-height:normal;font-family:sans-serif;font-variant-ligatures:normal;font-variant-position:normal;font-variant-caps:normal;font-variant-numeric:normal;font-variant-alternates:normal;font-variant-east-asian:normal;font-feature-settings:normal;font-variation-settings:normal;text-indent:0;text-align:start;text-decoration:none;text-decoration-line:none;text-decoration-style:solid;text-decoration-color:#000000;letter-spacing:normal;word-spacing:normal;text-transform:none;writing-mode:lr-tb;direction:ltr;text-orientation:mixed;dominant-baseline:auto;baseline-shift:baseline;text-anchor:start;white-space:normal;shape-padding:0;shape-margin:0;inline-size:0;clip-rule:nonzero;display:inline;overflow:visible;visibility:visible;opacity:1;isolation:auto;mix-blend-mode:normal;color-interpolation:sRGB;color-interpolation-filters:linearRGB;solid-color:#000000;solid-opacity:1;vector-effect:none;fill:#ffffff;fill-opacity:1;fill-rule:nonzero;stroke:none;stroke-linecap:round;stroke-linejoin:miter;stroke-miterlimit:4;stroke-dasharray:none;stroke-dashoffset:0;stroke-opacity:1;paint-order:markers stroke fill;color-rendering:auto;image-rendering:auto;shape-rendering:auto;text-rendering:auto;enable-background:accumulate;stop-color:#000000;stop-opacity:1"
         d="m 270.45117,42.144531 v 0.326172 14.767578 h 15.45703 v -15.09375 z m 0.65039,0.652344 h 14.15625 v 13.791016 h -14.15625 z"
         id="rect1194" />
      <g
         aria-label="&lt;/&gt;"
         transform="matrix(0.55718155,0,0,0.79393187,90.753339,-72.323848)"
         id="text1196"
         style="font-style:normal;font-variant:normal;font-weight:normal;font-stretch:normal;font-size:9.525px;line-height:1.25;font-family:sans-serif;-inkscape-font-specification:'sans-serif, Normal';font-variant-ligatures:normal;font-variant-caps:normal;font-variant-numeric:normal;font-variant-east-asian:normal;text-align:center;letter-spacing:0px;word-spacing:0px;white-space:pre;shape-inside:url(#rect1198);fill:#ffffff;fill-opacity:1">
        <path
           d="m 336.82761,156.02251 -4.7997,1.70687 4.7997,1.69757 v 0.84646 l -5.96242,-2.16266 v -0.77204 l 5.96242,-2.16266 z"
           style="font-style:normal;font-variant:normal;font-weight:normal;font-stretch:normal;font-size:9.525px;font-family:sans-serif;-inkscape-font-specification:'sans-serif, Normal';font-variant-ligatures:normal;font-variant-caps:normal;font-variant-numeric:normal;font-variant-east-asian:normal;fill:#ffffff;fill-opacity:1"
           id="path1127" />
        <path
           d="m 340.25531,153.76683 h 1.02583 l -2.41846,7.82743 h -1.02583 z"
           style="font-style:normal;font-variant:normal;font-weight:normal;font-stretch:normal;font-size:9.525px;font-family:sans-serif;-inkscape-font-specification:'sans-serif, Normal';font-variant-ligatures:normal;font-variant-caps:normal;font-variant-numeric:normal;font-variant-east-asian:normal;fill:#ffffff;fill-opacity:1"
           id="path1129"
           sodipodi:nodetypes="ccccc" />
        <path
           d="m 342.0552,156.02251 v -0.84646 l 5.96243,2.16266 v 0.77204 l -5.96243,2.16266 v -0.84646 l 4.7904,-1.69757 z"
           style="font-style:normal;font-variant:normal;font-weight:normal;font-stretch:normal;font-size:9.525px;font-family:sans-serif;-inkscape-font-specification:'sans-serif, Normal';font-variant-ligatures:normal;font-variant-caps:normal;font-variant-numeric:normal;font-variant-east-asian:normal;fill:#ffffff;fill-opacity:1"
           id="path1131" />
      </g>
      <path
         style="color:#000000;font-style:normal;font-variant:normal;font-weight:normal;font-stretch:normal;font-size:medium;line-height:normal;font-family:sans-serif;font-variant-ligatures:normal;font-variant-position:normal;font-variant-caps:normal;font-variant-numeric:normal;font-variant-alternates:normal;font-variant-east-asian:normal;font-feature-settings:normal;font-variation-settings:normal;text-indent:0;text-align:start;text-decoration:none;text-decoration-line:none;text-decoration-style:solid;text-decoration-color:#000000;letter-spacing:normal;word-spacing:normal;text-transform:none;writing-mode:lr-tb;direction:ltr;text-orientation:mixed;dominant-baseline:auto;baseline-shift:baseline;text-anchor:start;white-space:normal;shape-padding:0;shape-margin:0;inline-size:0;clip-rule:nonzero;display:inline;overflow:visible;visibility:visible;isolation:auto;mix-blend-mode:normal;color-interpolation:sRGB;color-interpolation-filters:linearRGB;solid-color:#000000;solid-opacity:1;vector-effect:none;fill:#ffffff;fill-opacity:1;fill-rule:nonzero;stroke:none;stroke-width:0.917705;stroke-linecap:butt;stroke-linejoin:miter;stroke-miterlimit:4;stroke-dasharray:none;stroke-dashoffset:0;stroke-opacity:1;color-rendering:auto;image-rendering:auto;shape-rendering:auto;text-rendering:auto;enable-background:accumulate;stop-color:#000000"
         d="m 272.04944,43.901908 v 0.7 h 12.31733 v -0.7 z"
         id="path1202"
         sodipodi:nodetypes="ccccc" />
      <path
         style="color:#000000;font-style:normal;font-variant:normal;font-weight:normal;font-stretch:normal;font-size:medium;line-height:normal;font-family:sans-serif;font-variant-ligatures:normal;font-variant-position:normal;font-variant-caps:normal;font-variant-numeric:normal;font-variant-alternates:normal;font-variant-east-asian:normal;font-feature-settings:normal;font-variation-settings:normal;text-indent:0;text-align:start;text-decoration:none;text-decoration-line:none;text-decoration-style:solid;text-decoration-color:#000000;letter-spacing:normal;word-spacing:normal;text-transform:none;writing-mode:lr-tb;direction:ltr;text-orientation:mixed;dominant-baseline:auto;baseline-shift:baseline;text-anchor:start;white-space:normal;shape-padding:0;shape-margin:0;inline-size:0;clip-rule:nonzero;display:inline;overflow:visible;visibility:visible;isolation:auto;mix-blend-mode:normal;color-interpolation:sRGB;color-interpolation-filters:linearRGB;solid-color:#000000;solid-opacity:1;vector-effect:none;fill:#ffffff;fill-opacity:1;fill-rule:nonzero;stroke:none;stroke-width:0.916207;stroke-linecap:butt;stroke-linejoin:miter;stroke-miterlimit:4;stroke-dasharray:2.18996, 0.54749;stroke-dashoffset:0;stroke-opacity:1;color-rendering:auto;image-rendering:auto;shape-rendering:auto;text-rendering:auto;enable-background:accumulate;stop-color:#000000"
         d="m 272.04944,45.425253 v 0.7 h 2.04898 v -0.7 z m 2.56122,0 v 0.7 h 2.04899 v -0.7 z m 2.56124,0 v 0.7 h 2.04898 v -0.7 z m 2.56122,0 v 0.7 h 1.80458 v -0.7 z"
         id="path1204"
         sodipodi:nodetypes="cccccccccccccccccccc" />
      <path
         style="color:#000000;font-style:normal;font-variant:normal;font-weight:normal;font-stretch:normal;font-size:medium;line-height:normal;font-family:sans-serif;font-variant-ligatures:normal;font-variant-position:normal;font-variant-caps:normal;font-variant-numeric:normal;font-variant-alternates:normal;font-variant-east-asian:normal;font-feature-settings:normal;font-variation-settings:normal;text-indent:0;text-align:start;text-decoration:none;text-decoration-line:none;text-decoration-style:solid;text-decoration-color:#000000;letter-spacing:normal;word-spacing:normal;text-transform:none;writing-mode:lr-tb;direction:ltr;text-orientation:mixed;dominant-baseline:auto;baseline-shift:baseline;text-anchor:start;white-space:normal;shape-padding:0;shape-margin:0;inline-size:0;clip-rule:nonzero;display:inline;overflow:visible;visibility:visible;isolation:auto;mix-blend-mode:normal;color-interpolation:sRGB;color-interpolation-filters:linearRGB;solid-color:#000000;solid-opacity:1;vector-effect:none;fill:#ffffff;fill-opacity:1;fill-rule:nonzero;stroke:none;stroke-width:0.916207;stroke-linecap:butt;stroke-linejoin:miter;stroke-miterlimit:4;stroke-dasharray:6.56988, 0.54749;stroke-dashoffset:0;stroke-opacity:1;color-rendering:auto;image-rendering:auto;shape-rendering:auto;text-rendering:auto;enable-background:accumulate;stop-color:#000000"
         d="m 272.6504,46.950271 v 0.7 h 6.14695 v -0.7 z m 6.6592,0 v 0.7 h 3.04668 v -0.7 z"
         id="path1206"
         sodipodi:nodetypes="cccccccccc" />
      <path
         style="color:#000000;font-style:normal;font-variant:normal;font-weight:normal;font-stretch:normal;font-size:medium;line-height:normal;font-family:sans-serif;font-variant-ligatures:normal;font-variant-position:normal;font-variant-caps:normal;font-variant-numeric:normal;font-variant-alternates:normal;font-variant-east-asian:normal;font-feature-settings:normal;font-variation-settings:normal;text-indent:0;text-align:start;text-decoration:none;text-decoration-line:none;text-decoration-style:solid;text-decoration-color:#000000;letter-spacing:normal;word-spacing:normal;text-transform:none;writing-mode:lr-tb;direction:ltr;text-orientation:mixed;dominant-baseline:auto;baseline-shift:baseline;text-anchor:start;white-space:normal;shape-padding:0;shape-margin:0;inline-size:0;clip-rule:nonzero;display:inline;overflow:visible;visibility:visible;isolation:auto;mix-blend-mode:normal;color-interpolation:sRGB;color-interpolation-filters:linearRGB;solid-color:#000000;solid-opacity:1;vector-effect:none;fill:#ffffff;fill-opacity:1;fill-rule:nonzero;stroke:none;stroke-width:0.916207;stroke-linecap:butt;stroke-linejoin:miter;stroke-miterlimit:4;stroke-dasharray:4.37991, 1.09498, 0.547489, 1.09498;stroke-dashoffset:0;stroke-opacity:1;color-rendering:auto;image-rendering:auto;shape-rendering:auto;text-rendering:auto;enable-background:accumulate;stop-color:#000000"
         d="m 272.04944,48.475289 v 0.7 h 4.09796 v -0.7 z m 5.12246,0 v 0.7 h 0.51223 v -0.7 z m 1.53673,0 v 0.7 h 0.89057 v -0.7 z"
         id="path1208"
         sodipodi:nodetypes="ccccccccccccccc" />
      <path
         style="color:#000000;font-style:normal;font-variant:normal;font-weight:normal;font-stretch:normal;font-size:medium;line-height:normal;font-family:sans-serif;font-variant-ligatures:normal;font-variant-position:normal;font-variant-caps:normal;font-variant-numeric:normal;font-variant-alternates:normal;font-variant-east-asian:normal;font-feature-settings:normal;font-variation-settings:normal;text-indent:0;text-align:start;text-decoration:none;text-decoration-line:none;text-decoration-style:solid;text-decoration-color:#000000;letter-spacing:normal;word-spacing:normal;text-transform:none;writing-mode:lr-tb;direction:ltr;text-orientation:mixed;dominant-baseline:auto;baseline-shift:baseline;text-anchor:start;white-space:normal;shape-padding:0;shape-margin:0;inline-size:0;clip-rule:nonzero;display:inline;overflow:visible;visibility:visible;isolation:auto;mix-blend-mode:normal;color-interpolation:sRGB;color-interpolation-filters:linearRGB;solid-color:#000000;solid-opacity:1;vector-effect:none;fill:#ffffff;fill-opacity:1;fill-rule:nonzero;stroke:none;stroke-width:0.916207;stroke-linecap:butt;stroke-linejoin:miter;stroke-miterlimit:4;stroke-dasharray:none;stroke-dashoffset:0;stroke-opacity:1;color-rendering:auto;image-rendering:auto;shape-rendering:auto;text-rendering:auto;enable-background:accumulate;stop-color:#000000"
         d="m 272.04944,49.998633 v 0.7 h 2.87091 v -0.7 z"
         id="path1210"
         sodipodi:nodetypes="ccccc" />
      <path
         style="color:#000000;font-style:normal;font-variant:normal;font-weight:normal;font-stretch:normal;font-size:medium;line-height:normal;font-family:sans-serif;font-variant-ligatures:normal;font-variant-position:normal;font-variant-caps:normal;font-variant-numeric:normal;font-variant-alternates:normal;font-variant-east-asian:normal;font-feature-settings:normal;font-variation-settings:normal;text-indent:0;text-align:start;text-decoration:none;text-decoration-line:none;text-decoration-style:solid;text-decoration-color:#000000;letter-spacing:normal;word-spacing:normal;text-transform:none;writing-mode:lr-tb;direction:ltr;text-orientation:mixed;dominant-baseline:auto;baseline-shift:baseline;text-anchor:start;white-space:normal;shape-padding:0;shape-margin:0;inline-size:0;clip-rule:nonzero;display:inline;overflow:visible;visibility:visible;isolation:auto;mix-blend-mode:normal;color-interpolation:sRGB;color-interpolation-filters:linearRGB;solid-color:#000000;solid-opacity:1;vector-effect:none;fill:#ffffff;fill-opacity:1;fill-rule:nonzero;stroke:none;stroke-width:0.916207;stroke-linecap:butt;stroke-linejoin:miter;stroke-miterlimit:4;stroke-dasharray:none;stroke-dashoffset:0;stroke-opacity:1;color-rendering:auto;image-rendering:auto;shape-rendering:auto;text-rendering:auto;enable-background:accumulate;stop-color:#000000"
         d="m 272.04944,51.523652 v 0.7 h 2.09417 v -0.7 z"
         id="path1212"
         sodipodi:nodetypes="ccccc" />
    </g>
    <path
       id="path1227"
       style="color:#000000;font-style:normal;font-variant:normal;font-weight:normal;font-stretch:normal;font-size:medium;line-height:normal;font-family:sans-serif;font-variant-ligatures:normal;font-variant-position:normal;font-variant-caps:normal;font-variant-numeric:normal;font-variant-alternates:normal;font-variant-east-asian:normal;font-feature-settings:normal;font-variation-settings:normal;text-indent:0;text-align:start;text-decoration:none;text-decoration-line:none;text-decoration-style:solid;text-decoration-color:#000000;letter-spacing:normal;word-spacing:normal;text-transform:none;writing-mode:lr-tb;direction:ltr;text-orientation:mixed;dominant-baseline:auto;baseline-shift:baseline;text-anchor:start;white-space:normal;shape-padding:0;shape-margin:0;inline-size:0;clip-rule:nonzero;display:inline;overflow:visible;visibility:visible;isolation:auto;mix-blend-mode:normal;color-interpolation:sRGB;color-interpolation-filters:linearRGB;solid-color:#000000;solid-opacity:1;vector-effect:none;fill:#ffffff;fill-opacity:1;fill-rule:nonzero;stroke:none;stroke-width:0.318889;stroke-linecap:round;stroke-linejoin:miter;stroke-miterlimit:4;stroke-dasharray:none;stroke-dashoffset:0;stroke-opacity:1;paint-order:markers stroke fill;color-rendering:auto;image-rendering:auto;shape-rendering:auto;text-rendering:auto;enable-background:accumulate;stop-color:#000000"
       d="m 209.06138,88.119872 v 0.39572 11.933658 h 11.04866 l 2.84156,2.84155 1.35774,-1.35831 -1.48322,-1.48324 h 2.56197 V 88.119872 Z m 0.79032,0.78868 h 14.74606 v 10.75202 h -2.55978 l -1.46564,-1.46564 -0.37973,0.37976 -1.62525,-1.62579 c 0.88651,-1.17921 0.79442,-2.86773 -0.27793,-3.94009 -1.17411,-1.1741 -3.08686,-1.17357 -4.26096,5.6e-4 v 0 c -1.17411,1.1741 -1.17411,3.08631 0,4.26041 1.07319,1.07318 2.76305,1.16491 3.94232,0.27628 l -0.003,0.003 1.62525,1.62524 -0.37921,0.37921 0.10734,0.10732 h -9.46966 z m 6.30614,3.82177 c 0.61545,0 1.23102,0.23594 1.70229,0.70722 0.94255,0.94256 0.94255,2.46147 0,3.40404 -0.94256,0.94255 -2.46146,0.94256 -3.40402,0 -0.94258,-0.94256 -0.94258,-2.46148 0,-3.40404 0.47127,-0.47128 1.08627,-0.70722 1.70173,-0.70722 z" />
    <path
       id="rect861"
       style="fill:#ffffff;fill-opacity:1;stroke:none;stroke-width:3.29867;stroke-miterlimit:4;stroke-dasharray:none;stroke-opacity:1;paint-order:markers stroke fill"
       d="m 13.350453,20.756419 c -6.0630341,0 -10.9440341,4.881 -10.9440341,10.944035 v 34.775137 c 0,6.063033 4.881,10.944035 10.9440341,10.944035 h 9.285738 c 1.622051,4.689246 -0.215947,8.777916 -2.611727,11.700576 8.44516,-0.36347 12.21305,-6.29315 14.02653,-11.700576 H 156.54843 c 6.06303,0 10.94404,-4.881002 10.94404,-10.944035 V 31.700454 c 0,-6.063035 -4.88101,-10.944035 -10.94404,-10.944035 z m -2.120284,13.141833 h 9.225793 l 3.650422,24.525119 H 17.577585 L 17.259258,54.01537 h -2.287199 l -0.378788,4.408001 H 7.9885069 Z m 71.410115,0 h 6.30194 v 3.196189 h -6.30194 z m 29.493816,0 h 6.42338 c 1.737,0 3.07013,0.136088 3.99924,0.408761 0.9392,0.272674 1.64073,0.666792 2.10528,1.181841 0.47468,0.515046 0.79291,1.141209 0.95447,1.878438 0.17173,0.727126 0.25735,1.858026 0.25735,3.393073 v 2.135788 c 0,1.565343 -0.16156,2.706534 -0.48473,3.423562 -0.32316,0.717029 -0.91898,1.26782 -1.78748,1.65158 -0.85842,0.383762 -1.98443,0.575675 -3.37809,0.575675 h -1.71153 v 9.876401 h -6.37739 z m 42.35554,0 h 6.30142 v 24.525119 h -6.30142 z m -80.983686,1.742012 h 6.13503 v 3.166216 h 1.65106 v 3.181202 h -1.65106 v 10.755416 c 0,1.322966 0.0655,2.059749 0.19688,2.211234 0.14144,0.151479 0.71231,0.227375 1.71204,0.227375 v 3.241664 h -2.46961 c -1.39365,0 -2.38797,-0.0553 -2.9838,-0.166399 -0.59583,-0.12119 -1.12115,-0.388996 -1.57562,-0.803053 -0.45444,-0.424156 -0.73742,-0.903941 -0.84852,-1.439188 -0.11115,-0.545343 -0.1664,-1.817738 -0.1664,-3.817337 V 41.987682 h -1.31827 V 38.80648 h 1.31827 z m -44.50633,2.317689 c 0.76749,0 1.46417,0.156668 2.09032,0.469739 0.63623,0.313068 1.20169,0.782563 1.69653,1.4087 l 0.43977,-1.514636 h 5.69526 v 15.481741 c 0,2.090492 -0.05,3.443663 -0.1509,4.059701 -0.0909,0.605938 -0.42967,1.24728 -1.01544,1.923912 -0.58574,0.686731 -1.4033,1.206648 -2.4536,1.560113 -1.04018,0.363564 -2.35322,0.545187 -3.93877,0.545187 -1.9491,-2e-6 -3.514265,-0.332888 -4.695841,-0.999424 -1.181579,-0.656433 -1.79256,-1.954297 -1.832965,-3.893301 h 5.938136 c 0,0.888709 0.3231,1.333251 0.96946,1.333251 0.46455,0 0.77249,-0.136628 0.92397,-0.409276 0.15146,-0.272674 0.22738,-0.843012 0.22738,-1.711526 v -1.515152 c -0.52517,0.474652 -1.08085,0.833011 -1.66657,1.075388 -0.57566,0.242377 -1.18174,0.363802 -1.81798,0.363802 -1.10079,0 -2.009422,-0.222271 -2.726445,-0.666628 -0.706935,-0.444354 -1.191617,-1.024983 -1.454174,-1.742011 -0.262583,-0.727126 -0.393777,-1.757185 -0.393777,-3.090252 v -7.301362 c 0,-1.908709 0.343181,-3.282463 1.029912,-4.120679 0.686732,-0.838216 1.731973,-1.257287 3.135724,-1.257287 z m 18.69292,0 c 1.71683,0 3.13072,0.328002 4.2416,0.984436 1.121,0.646334 1.90382,1.509945 2.34818,2.59054 0.45446,1.070491 0.68161,2.580333 0.68161,4.529439 v 2.665987 h -7.92251 v 4.348054 c 0,0.90891 0.0657,1.494425 0.19688,1.757 0.13118,0.262573 0.38331,0.393774 0.75706,0.393774 0.46456,0 0.7725,-0.171849 0.92398,-0.515215 0.16147,-0.353465 0.24236,-1.030049 0.24236,-2.029849 v -2.651001 h 5.80171 v 1.484662 c 0,1.242179 -0.0804,2.196862 -0.24184,2.863392 -0.15146,0.666533 -0.51521,1.378363 -1.09089,2.135788 -0.57561,0.757423 -1.30755,1.327762 -2.19625,1.711524 -0.87862,0.37366 -1.98457,0.560689 -3.31763,0.560689 -1.29268,0 -2.43387,-0.187029 -3.42356,-0.560689 -0.98972,-0.373663 -1.76226,-0.883288 -2.31769,-1.529623 -0.54536,-0.656433 -0.9243,-1.373669 -1.13636,-2.15129 -0.21204,-0.787722 -0.31781,-1.928913 -0.31781,-3.423565 v -5.86269 c 0,-1.757223 0.23694,-3.140753 0.71158,-4.150651 0.47467,-1.019998 1.2526,-1.797429 2.33319,-2.332675 1.08059,-0.545346 2.32264,-0.818037 3.72639,-0.818037 z m 19.23862,0 c 1.0503,0 1.90902,0.24724 2.57555,0.742072 0.66653,0.494853 1.09589,1.121016 1.28778,1.878439 0.19201,0.747323 0.28784,1.999654 0.28784,3.756876 v 14.088031 h -6.12004 V 44.502255 c 0,-1.383561 -0.0455,-2.227106 -0.13643,-2.530078 -0.0908,-0.302969 -0.34349,-0.454234 -0.75758,-0.454234 -0.43426,0 -0.70644,0.176734 -0.81752,0.530199 -0.11115,0.343366 -0.16691,1.27258 -0.16691,2.787428 v 13.587801 h -6.12004 V 38.321756 h 6.22597 l -0.10593,1.847947 c 0.44435,-0.737224 0.98433,-1.287496 1.62057,-1.65106 0.64635,-0.373666 1.38853,-0.56069 2.22674,-0.56069 z m 30.82757,0 c 1.59564,0 2.958566,0.338291 4.089676,1.014926 1.13109,0.676622 1.88358,1.529953 2.25724,2.56005 0.37365,1.030097 0.56069,2.489518 0.56069,4.378026 h -5.771756 v -2.317686 c 0,-0.807921 -0.0657,-1.353307 -0.19689,-1.636078 -0.13118,-0.29287 -0.37351,-0.439248 -0.72708,-0.439248 -0.35346,0 -0.59092,0.126312 -0.71211,0.378788 -0.12116,0.252474 -0.18138,0.817925 -0.18138,1.696538 v 9.48314 c 0,0.717031 0.0906,1.257012 0.27233,1.620573 0.18175,0.353465 0.44955,0.530201 0.80306,0.530201 0.41406,0 0.69163,-0.18651 0.83302,-0.560173 0.15146,-0.373663 0.22738,-1.080603 0.22738,-2.1208 v -2.393653 h 5.453426 c -0.01,1.605738 -0.0705,2.812531 -0.18191,3.620452 -0.10088,0.797809 -0.43919,1.620782 -1.01492,2.4691 -0.56554,0.838213 -1.30773,1.474671 -2.22675,1.908926 -0.919,0.424159 -2.055316,0.636138 -3.408576,0.636138 -1.72694,0 -3.09528,-0.292761 -4.10518,-0.878501 -1.00989,-0.595839 -1.72662,-1.424207 -2.15077,-2.484602 -0.41406,-1.070491 -0.62115,-2.585222 -0.62115,-4.544425 v -5.710764 c 0,-1.706729 0.17133,-2.994816 0.5147,-3.863329 0.34336,-0.868514 1.07579,-1.641055 2.19676,-2.317687 1.121,-0.686731 2.48446,-1.029912 4.09019,-1.029912 z m 36.355936,0 c 1.71683,0 3.13072,0.328002 4.2416,0.984436 1.12099,0.646334 1.90382,1.509945 2.34818,2.59054 0.45446,1.070491 0.68161,2.580333 0.68161,4.529439 v 2.665987 h -7.92252 v 4.348054 c 0,0.90891 0.0652,1.494425 0.19637,1.757 0.13118,0.262573 0.38383,0.393774 0.75758,0.393774 0.46456,0 0.7725,-0.171849 0.92398,-0.515215 0.16147,-0.353465 0.24236,-1.030049 0.24236,-2.029849 v -2.651001 h 5.80171 v 1.484662 c 0,1.242179 -0.0804,2.196862 -0.24184,2.863392 -0.15146,0.666533 -0.51524,1.378363 -1.09089,2.135788 -0.57566,0.757423 -1.30806,1.327762 -2.19677,1.711524 -0.87862,0.37366 -1.98405,0.560689 -3.31711,0.560689 -1.29268,0 -2.43387,-0.187029 -3.42356,-0.560689 -0.98972,-0.373663 -1.76226,-0.883288 -2.31769,-1.529623 -0.54536,-0.656433 -0.9243,-1.373669 -1.13636,-2.15129 -0.21204,-0.787722 -0.31782,-1.928913 -0.31782,-3.423565 v -5.86269 c 0,-1.757223 0.23692,-3.140753 0.71159,-4.150651 0.47464,-1.019998 1.2526,-1.797429 2.33319,-2.332675 1.08059,-0.545346 2.32263,-0.818037 3.72639,-0.818037 z m 19.01176,0 v 7.074504 c -1.121,0 -1.94397,0.151267 -2.4691,0.454236 -0.52514,0.302969 -0.84827,0.727446 -0.96945,1.272789 -0.12117,0.535247 -0.1819,1.777283 -0.1819,3.726389 v 7.9375 h -6.12004 V 38.321756 h 6.11952 l -0.24185,2.635498 c 0.88871,-1.888511 2.17628,-2.88821 3.86282,-2.999301 z M 118.512,38.094378 v 6.240962 c 0.18175,0.01003 0.3379,0.01498 0.46923,0.01498 0.58574,0 0.99015,-0.140975 1.21232,-0.423746 0.23232,-0.29287 0.3483,-0.89408 0.3483,-1.80299 v -2.014866 c 0,-0.838216 -0.13122,-1.383598 -0.39377,-1.636074 -0.26258,-0.252476 -0.80796,-0.378273 -1.63608,-0.378273 z m -35.871716,0.227378 h 6.30194 v 20.101615 h -6.30194 z m -66.532377,1.060399 c -0.646351,4.68593 -1.050245,8.114395 -1.211812,10.285677 h 2.181262 C 16.754194,46.89061 16.431071,43.462147 16.107907,39.382155 Z m 15.815057,2.135788 c -0.35348,0 -0.6061,0.146378 -0.75758,0.439248 -0.14144,0.282771 -0.21187,0.848223 -0.21187,1.696538 v 6.756177 c 0,0.898809 0.0558,1.484842 0.16691,1.757516 0.11115,0.262573 0.3432,0.393774 0.6966,0.393774 0.40395,0 0.66636,-0.161559 0.78755,-0.484724 0.12114,-0.32317 0.1819,-1.055582 0.1819,-2.196767 v -6.225976 c 0,-0.919007 -0.0553,-1.504524 -0.1664,-1.756998 -0.10089,-0.252476 -0.33347,-0.378788 -0.69711,-0.378788 z m 16.05742,0 c -0.42415,0 -0.68656,0.131199 -0.78755,0.393774 -0.10089,0.252474 -0.15141,0.944237 -0.15141,2.075326 v 1.469676 h 1.78748 v -1.469676 c 0,-1.040196 -0.0558,-1.711894 -0.16691,-2.014866 -0.11115,-0.302969 -0.33832,-0.454234 -0.68161,-0.454234 z m 86.422116,0 c -0.42415,0 -0.68656,0.131199 -0.78754,0.393774 -0.10089,0.252474 -0.15142,0.944237 -0.15142,2.075326 v 1.469676 h 1.78749 v -1.469676 c 0,-1.040196 -0.0558,-1.711894 -0.16691,-2.014866 -0.11115,-0.302969 -0.33832,-0.454234 -0.68162,-0.454234 z" />
    <path
       id="rect1049"
       style="fill:#ffffff;fill-opacity:1;stroke:none;stroke-width:2.13276;stroke-miterlimit:4;stroke-dasharray:none;stroke-opacity:1;paint-order:markers stroke fill"
       d="m 46.585634,85.770022 c -3.25601,0 -5.87716,2.62114 -5.87716,5.87716 v 18.675348 c 0,3.25601 2.62115,5.87716 5.87716,5.87716 H 148.08176 c 1.39188,4.24902 4.31839,8.97306 10.97091,9.25938 -1.8906,-2.30638 -3.33389,-5.54595 -1.97817,-9.25938 h 6.26163 c 3.25601,0 5.87716,-2.62115 5.87716,-5.87716 V 91.647182 c 0,-3.25602 -2.62115,-5.87716 -5.87716,-5.87716 z m 77.060416,7.57576 h 1.71463 v 1.55494 h -1.71463 z m 39.26582,0.19172 c 0.77742,0 1.36993,0.17779 1.77818,0.53278 0.41178,0.35145 0.61806,0.86606 0.61806,1.5441 0,0.34789 -0.0639,0.65999 -0.19173,0.93689 -0.12426,0.27335 -0.3359,0.56824 -0.63407,0.88418 l -0.3085,0.30335 c -0.21656,0.22009 -0.3589,0.39788 -0.42634,0.53278 -0.0674,0.13134 -0.10077,0.27691 -0.10077,0.43666 v 0.23927 h -1.73064 v -0.26097 c 0,-0.29109 0.0531,-0.5484 0.15968,-0.77205 0.10655,-0.22719 0.32842,-0.51458 0.66559,-0.86248 l 0.30903,-0.30902 c 0.18115,-0.18459 0.31437,-0.35863 0.39946,-0.52193 0.0851,-0.16331 0.12765,-0.3266 0.12765,-0.48989 0,-0.2485 -0.0784,-0.44188 -0.23461,-0.58033 -0.15272,-0.14199 -0.36546,-0.21291 -0.63873,-0.21291 -0.25916,0 -0.53953,0.0607 -0.84129,0.18139 -0.29818,0.11714 -0.61081,0.29279 -0.93741,0.5271 v -1.67225 c 0.38695,-0.14911 0.74038,-0.25922 1.05989,-0.33022 0.31949,-0.071 0.62835,-0.10645 0.92655,-0.10645 z m -118.298206,0.14366 h 1.84743 v 3.03031 h 2.72128 v -3.03031 h 1.84227 v 7.950418 h -1.84227 v -3.370848 h -2.72128 v 3.370848 h -1.84743 z m 53.744,0 h 1.847946 v 7.950418 h -1.847946 z m 34.643886,0.29301 h 1.7203 v 1.69343 h 1.76787 v 1.36323 h -1.76787 v 2.52904 c 0,0.2769 0.0478,0.465428 0.14367,0.564828 0.0993,0.0958 0.29647,0.14366 0.59118,0.14366 h 0.88366 v 1.36322 h -1.46968 c -0.67804,0 -1.15881,-0.15631 -1.4428,-0.46871 -0.28399,-0.31594 -0.42633,-0.85041 -0.42633,-1.602998 v -2.52904 h -0.85163 v -1.36323 h 0.85163 z m -77.700686,1.54977 c 0.92655,0 1.64851,0.27665 2.16679,0.83044 0.51829,0.55379 0.77773,1.32085 0.77773,2.30064 0,0.97978 -0.25944,1.746328 -0.77773,2.300118 -0.51828,0.55379 -1.24024,0.83095 -2.16679,0.83095 -0.92298,0 -1.6476,-0.27716 -2.173,-0.83095 -0.52182,-0.55379 -0.78238,-1.320338 -0.78238,-2.300118 0,-0.97979 0.26056,-1.74685 0.78238,-2.30064 0.5254,-0.55379 1.25002,-0.83044 2.173,-0.83044 z m 20.01273,0 c 0.3692,0 0.6958,0.0994 0.97979,0.29818 0.28696,0.19838 0.50301,0.47605 0.64853,0.83354 0.21631,-0.36819 0.4739,-0.64788 0.77154,-0.83923 0.2982,-0.19525 0.62642,-0.29249 0.98495,-0.29249 0.6177,0 1.08772,0.21111 1.41077,0.63355 0.32304,0.42245 0.48472,1.03644 0.48472,1.84227 v 3.631818 h -1.72496 v -3.109888 c 0.004,-0.0461 0.006,-0.094 0.006,-0.14366 0.004,-0.0497 0.006,-0.12062 0.006,-0.21291 0,-0.42244 -0.057,-0.72807 -0.17053,-0.91622 -0.11005,-0.1917 -0.29108,-0.28732 -0.54312,-0.28732 -0.32304,0 -0.57336,0.14881 -0.75086,0.447 -0.17744,0.2982 -0.26976,0.72954 -0.27698,1.29398 v 2.929018 h -1.72548 v -3.109888 c 0,-0.66029 -0.0512,-1.08464 -0.154,-1.27279 -0.10304,-0.1917 -0.28569,-0.28732 -0.54828,-0.28732 -0.32661,0 -0.58067,0.15094 -0.76171,0.45269 -0.17744,0.29819 -0.26614,0.72578 -0.26614,1.28312 v 2.934188 h -1.72547 v -5.963978 h 1.72547 v 0.87333 c 0.20945,-0.33724 0.45064,-0.59131 0.72399,-0.7617 0.27335,-0.1704 0.57524,-0.25529 0.90537,-0.25529 z m 9.16223,0 c 0.96914,0 1.66854,0.21273 2.09807,0.63872 0.42954,0.42245 0.6444,1.11109 0.6444,2.06603 v 3.402888 h -1.73064 v -0.88418 c -0.23074,0.36209 -0.49018,0.6269 -0.77773,0.79375 -0.28754,0.1633 -0.63723,0.24494 -1.04904,0.24494 -0.55733,0 -1.00964,-0.17941 -1.35753,-0.53795 -0.34435,-0.36209 -0.51677,-0.83102 -0.51677,-1.406108 0,-0.69934 0.21648,-1.21182 0.64957,-1.53841 0.4331,-0.3266 1.11313,-0.48989 2.03967,-0.48989 h 1.01183 v -0.14935 c 0,-0.30174 -0.10851,-0.52198 -0.32505,-0.66042 -0.21299,-0.142 -0.54495,-0.21291 -0.9958,-0.21291 -0.36918,0 -0.71138,0.0408 -1.02733,0.12247 -0.31595,0.0816 -0.61085,0.20413 -0.88418,0.36742 v -1.45366 c 0.36918,-0.0994 0.73822,-0.17405 1.10742,-0.22376 0.37273,-0.0533 0.74391,-0.0796 1.11311,-0.0796 z m 23.152596,0 c 0.96915,0 1.66852,0.21273 2.09807,0.63872 0.42953,0.42245 0.6444,1.11109 0.6444,2.06603 v 3.402888 h -1.73065 v -0.88418 c -0.23075,0.36209 -0.48965,0.6269 -0.7772,0.79375 -0.28754,0.1633 -0.63723,0.24494 -1.04903,0.24494 -0.55734,0 -1.01017,-0.17941 -1.35806,-0.53795 -0.34434,-0.36209 -0.51625,-0.83102 -0.51625,-1.406108 0,-0.69934 0.21648,-1.21182 0.64957,-1.53841 0.43311,-0.3266 1.11263,-0.48989 2.03915,-0.48989 h 1.01182 v -0.14935 c 0,-0.30174 -0.10796,-0.52198 -0.32452,-0.66042 -0.21298,-0.142 -0.54495,-0.21291 -0.99581,-0.21291 -0.36918,0 -0.71189,0.0408 -1.02784,0.12247 -0.31594,0.0816 -0.61086,0.20413 -0.88419,0.36742 v -1.45366 c 0.3692,-0.0994 0.73875,-0.17405 1.10795,-0.22376 0.37275,-0.0533 0.74341,-0.0796 1.11259,-0.0796 z m 6.39547,0 c 0.31595,0 0.64791,0.0263 0.99581,0.0796 0.34775,0.0532 0.72574,0.13711 1.13378,0.25063 v 1.44798 c -0.36564,-0.1704 -0.72018,-0.29824 -1.06452,-0.38344 -0.34079,-0.0852 -0.66203,-0.12764 -0.96378,-0.12764 -0.32659,0 -0.56991,0.0462 -0.72967,0.13849 -0.15621,0.0887 -0.23461,0.22733 -0.23461,0.41548 0,0.15265 0.0586,0.26975 0.1757,0.3514 0.12076,0.0816 0.33726,0.14181 0.64958,0.18087 l 0.29869,0.0481 c 0.88038,0.12424 1.47127,0.32837 1.77302,0.61236 0.30529,0.284 0.45785,0.72931 0.45785,1.33635 0,0.635438 -0.2111,1.112978 -0.63356,1.432468 -0.42243,0.3195 -1.05253,0.47956 -1.89033,0.47956 -0.35499,0 -0.72241,-0.0322 -1.10225,-0.0961 -0.37629,-0.0603 -0.76356,-0.15274 -1.16117,-0.27698 v -1.448488 c 0.3408,0.184588 0.69049,0.323168 1.04903,0.415468 0.36209,0.0923 0.72791,0.1385 1.09709,0.1385 0.33369,0 0.58564,-0.0516 0.75604,-0.15452 0.17043,-0.10294 0.25578,-0.25549 0.25578,-0.457848 0,-0.17039 -0.0586,-0.2961 -0.1757,-0.37775 -0.11705,-0.0852 -0.34965,-0.15127 -0.69763,-0.19741 l -0.30334,-0.0424 c -0.76324,-0.1065 -1.29933,-0.30364 -1.60817,-0.59118 -0.30529,-0.28754 -0.45785,-0.72425 -0.45785,-1.30999 0,-0.63189 0.195,-1.10031 0.58549,-1.4056 0.39049,-0.3053 0.98889,-0.45786 1.79472,-0.45786 z m 5.84151,0 c 0.31595,0 0.64791,0.0263 0.9958,0.0796 0.34775,0.0532 0.72574,0.13711 1.13378,0.25063 v 1.44798 c -0.36563,-0.1704 -0.7207,-0.29824 -1.06505,-0.38344 -0.3408,-0.0852 -0.66203,-0.12764 -0.96376,-0.12764 -0.32661,0 -0.56942,0.0462 -0.72916,0.13849 -0.15621,0.0887 -0.23461,0.22733 -0.23461,0.41548 0,0.15265 0.0587,0.26975 0.1757,0.3514 0.12077,0.0816 0.33725,0.14181 0.64957,0.18087 l 0.29818,0.0481 c 0.8804,0.12424 1.4718,0.32837 1.77353,0.61236 0.3053,0.284 0.45786,0.72931 0.45786,1.33635 0,0.635438 -0.21112,1.112978 -0.63356,1.432468 -0.42242,0.3195 -1.05251,0.47956 -1.89032,0.47956 -0.35498,0 -0.72242,-0.0322 -1.10226,-0.0961 -0.37629,-0.0603 -0.76356,-0.15274 -1.16117,-0.27698 v -1.448488 c 0.34081,0.184588 0.6905,0.323168 1.04903,0.415468 0.3621,0.0923 0.72789,0.1385 1.09709,0.1385 0.3337,0 0.58564,-0.0516 0.75603,-0.15452 0.17044,-0.10294 0.2558,-0.25549 0.2558,-0.457848 0,-0.17039 -0.0586,-0.2961 -0.1757,-0.37775 -0.11706,-0.0852 -0.34964,-0.15127 -0.69763,-0.19741 l -0.30335,-0.0424 c -0.76324,-0.1065 -1.29932,-0.30364 -1.60816,-0.59118 -0.3053,-0.28754 -0.45786,-0.72425 -0.45786,-1.30999 0,-0.63189 0.195,-1.10031 0.5855,-1.4056 0.39049,-0.3053 0.98888,-0.45786 1.79472,-0.45786 z m 9.2015,0 c 0.31595,0 0.64791,0.0263 0.99582,0.0796 0.34788,0.0532 0.72553,0.13704 1.13377,0.25063 v 1.44798 c -0.36564,-0.1704 -0.7207,-0.29824 -1.06505,-0.38344 -0.34079,-0.0852 -0.66202,-0.12764 -0.96377,-0.12764 -0.32658,0 -0.56939,0.0462 -0.72915,0.13849 -0.15622,0.0887 -0.23461,0.22733 -0.23461,0.41548 0,0.15265 0.0586,0.26975 0.1757,0.3514 0.12076,0.0816 0.33725,0.14181 0.64957,0.18087 l 0.29817,0.0481 c 0.88038,0.12424 1.47179,0.32837 1.77354,0.61236 0.30529,0.284 0.45785,0.72931 0.45785,1.33635 0,0.635438 -0.2111,1.112978 -0.63355,1.432468 -0.42244,0.3195 -1.05254,0.47956 -1.89033,0.47956 -0.355,0 -0.72242,-0.0322 -1.10225,-0.0961 -0.3763,-0.0603 -0.76359,-0.15274 -1.16117,-0.27698 v -1.448488 c 0.34078,0.184588 0.69048,0.323168 1.04903,0.415468 0.36209,0.0923 0.7279,0.1385 1.09709,0.1385 0.33369,0 0.58563,-0.0516 0.75603,-0.15452 0.17043,-0.10294 0.25579,-0.25549 0.25579,-0.457848 0,-0.17039 -0.0586,-0.2961 -0.1757,-0.37775 -0.11705,-0.0852 -0.34965,-0.15127 -0.69763,-0.19741 l -0.30334,-0.0424 c -0.76322,-0.1065 -1.29931,-0.30364 -1.60817,-0.59118 -0.3053,-0.28754 -0.45785,-0.72425 -0.45785,-1.30999 0,-0.63189 0.19498,-1.10031 0.58549,-1.4056 0.39049,-0.3053 0.9889,-0.45786 1.79472,-0.45786 z m 20.83077,0 c 0.92653,0 1.64903,0.27665 2.16731,0.83044 0.51831,0.55379 0.77722,1.32085 0.77722,2.30064 0,0.97978 -0.25891,1.746328 -0.77722,2.300118 -0.51828,0.55379 -1.24078,0.83095 -2.16731,0.83095 -0.923,0 -1.6471,-0.27716 -2.17247,-0.83095 -0.52186,-0.55379 -0.7829,-1.320338 -0.7829,-2.300118 0,-0.97979 0.26104,-1.74685 0.7829,-2.30064 0.52537,-0.55379 1.24947,-0.83044 2.17247,-0.83044 z m -90.885406,0.14366 h 1.66657 l 0.89968,4.11086 0.90537,-4.11086 h 1.43247 l 0.90538,4.06797 0.90485,-4.06797 h 1.66708 l -1.41645,5.963978 h -1.86914 l -0.91053,-4.100518 -0.90021,4.100518 h -1.8743 z m 28.75432,0 h 1.71979 l 1.44332,4.04678 1.22473,-4.04678 h 1.71463 l -2.25775,6.528288 c -0.22719,0.66384 -0.4915,1.12688 -0.79323,1.38958 -0.30175,0.26624 -0.69975,0.39946 -1.19321,0.39946 h -0.9958 v -1.25109 h 0.53795 c 0.2911,0 0.50219,-0.0516 0.63355,-0.15451 0.13499,-0.10295 0.23974,-0.28772 0.31419,-0.55397 l 0.0481,-0.16485 z m 35.879466,0 h 1.71463 v 5.963978 h -1.71463 z m 16.59744,0 h 1.72031 l 1.44281,4.04678 1.22473,-4.04678 h 1.71462 l -2.25774,6.528288 c -0.22719,0.66384 -0.49148,1.12688 -0.79323,1.38958 -0.30173,0.26624 -0.69976,0.39946 -1.19321,0.39946 h -0.99529 v -1.25109 h 0.53743 c 0.2911,0 0.50271,-0.0516 0.63407,-0.15451 0.13478,-0.10295 0.23901,-0.28772 0.31368,-0.55397 l 0.0481,-0.16485 z m 13.78624,0 h 1.72548 v 0.59635 c 0,0.32304 -0.002,0.72967 -0.006,1.21956 -0.004,0.48634 -0.006,0.81081 -0.006,0.9741 0,0.47925 0.0103,0.8257 0.0315,1.0387 0.0249,0.20945 0.0641,0.36201 0.1173,0.45785 0.0709,0.124248 0.16323,0.219868 0.27699,0.287318 0.11355,0.0675 0.24303,0.10129 0.38861,0.10129 0.35854,0 0.63895,-0.15256 0.84129,-0.457848 0.20588,-0.3053 0.30902,-0.72965 0.30902,-1.27279 v -2.94453 h 1.71463 v 5.963978 h -1.71502 v -0.863 c -0.25913,0.3479 -0.53416,0.60572 -0.82526,0.77257 -0.28756,0.1633 -0.60554,0.24494 -0.95343,0.24494 -0.61768,0 -1.08984,-0.21162 -1.41645,-0.63407 -0.32304,-0.42244 -0.48421,-1.03642 -0.48421,-1.842258 h 0.002 z m -98.728866,1.21957 c -0.37983,0 -0.66938,0.15256 -0.86816,0.45785 -0.19888,0.30175 -0.29818,0.73846 -0.29818,1.31 0,0.57154 0.0993,1.00987 0.29818,1.31516 0.19887,0.301748 0.48841,0.452688 0.86816,0.452688 0.3763,0 0.66207,-0.15094 0.85731,-0.452688 0.19888,-0.30529 0.29817,-0.74362 0.29817,-1.31516 0,-0.57154 -0.0993,-1.00825 -0.29817,-1.31 -0.19516,-0.30529 -0.48093,-0.45785 -0.85731,-0.45785 z m 94.596816,0 c -0.37986,0 -0.66937,0.15256 -0.86816,0.45785 -0.19887,0.30175 -0.29817,0.73846 -0.29817,1.31 0,0.57154 0.0993,1.00987 0.29817,1.31516 0.19887,0.301748 0.48838,0.452688 0.86816,0.452688 0.37629,0 0.66207,-0.15094 0.85731,-0.452688 0.19887,-0.30529 0.29817,-0.74362 0.29817,-1.31516 0,-0.57154 -0.0993,-1.00825 -0.29817,-1.31 -0.19516,-0.30529 -0.48094,-0.45785 -0.85731,-0.45785 z m -65.299376,2.06034 c -0.35855,0 -0.62821,0.0677 -0.80926,0.20257 -0.18115,0.1349 -0.27181,0.33366 -0.27181,0.59634 0,0.2414 0.0726,0.431548 0.21807,0.569988 0.1455,0.13491 0.348,0.20206 0.6072,0.20206 0.32304,0 0.59483,-0.12784 0.81494,-0.38344 0.22007,-0.259138 0.32969,-0.581988 0.32969,-0.968928 v -0.21859 z m 23.152596,0 c -0.35855,0 -0.6282,0.0677 -0.80925,0.20257 -0.18094,0.1349 -0.2713,0.33366 -0.2713,0.59634 0,0.2414 0.0726,0.431548 0.21807,0.569988 0.1455,0.13491 0.34801,0.20206 0.6072,0.20206 0.32304,0 0.59432,-0.12784 0.81442,-0.38344 0.2201,-0.259138 0.33021,-0.581988 0.33021,-0.968928 v -0.21859 z m 54.16517,0.78806 h 1.73064 v 1.896008 h -1.73064 z" />
    <path
       id="rect1340"
       style="fill:#ffffff;fill-opacity:1;stroke:none;stroke-width:1.08536;stroke-miterlimit:4;stroke-dasharray:none;stroke-opacity:1;paint-order:markers stroke fill"
       d="m 6.4015239,130.82308 c -2.21332,0 -3.995105,1.78179 -3.995105,3.99511 v 12.69483 c 0,2.21332 1.781785,3.9951 3.995105,3.9951 H 22.902841 c 1.118633,4.31814 -0.634639,8.07818 -2.878377,10.81537 7.98551,-0.3437 11.79288,-5.6654 13.71699,-10.81537 h 13.62863 c 2.21332,0 3.9951,-1.78178 3.9951,-3.9951 v -12.69483 c 0,-2.21332 -1.78178,-3.99511 -3.9951,-3.99511 z m 31.1154101,7.46415 a 2.8784573,2.8784573 0 0 1 0.045,0 2.8784573,2.8784573 0 0 1 2.87838,2.87837 2.8784573,2.8784573 0 0 1 -2.87838,2.87838 2.8784573,2.8784573 0 0 1 -2.87837,-2.87838 2.8784573,2.8784573 0 0 1 2.83341,-2.87837 z m -11.051519,0.30902 a 2.5693586,2.5693586 0 0 1 0.01447,0 2.5693586,2.5693586 0 0 1 2.569349,2.56935 2.5693586,2.5693586 0 0 1 -2.569349,2.56936 2.5693586,2.5693586 0 0 1 -2.569353,-2.56936 2.5693586,2.5693586 0 0 1 2.554883,-2.56935 z m -11.080461,0.5023 a 2.0668831,2.0668831 0 0 1 0.01292,0 2.0668831,2.0668831 0 0 1 2.067057,2.06705 2.0668831,2.0668831 0 0 1 -2.067057,2.06655 2.0668831,2.0668831 0 0 1 -2.066541,-2.06655 2.0668831,2.0668831 0 0 1 2.053621,-2.06705 z" />
    <g
       id="g1361"
       style="fill:#006c6c;fill-opacity:1;stroke:none;stroke-width:1;stroke-miterlimit:4;stroke-dasharray:none"
       transform="matrix(0.81859133,0,0,0.81859133,-58.737797,25.509431)" />
    <g
       id="g1004"
       transform="matrix(1.0650295,0,0,1.0650295,-15.302638,-59.590749)">
      <g
         id="g1330"
         transform="matrix(0.08920673,-0.03735528,0.03735528,0.08920673,185.81283,157.41635)">
        <g
           id="g1328"
           transform="matrix(0.03527778,0,0,-0.03527778,34.98223,-80.418332)">
          <path
             id="path1324"
             style="fill:#ffffff;fill-opacity:1;fill-rule:nonzero;stroke:none;stroke-width:0.0128949"
             d="m 768.96484,425.81445 c -0.44993,-0.002 -0.90721,0.0851 -1.34765,0.26953 l -32.09571,13.43946 c -0.50062,0.20964 -0.92188,0.52526 -1.25781,0.9082 -0.84636,0.96478 -1.12771,2.36385 -0.59961,3.625 l 28.59961,68.29492 c 0.73779,1.7619 2.77143,2.59517 4.53321,1.85742 l 32.09374,-13.43945 c 1.02124,-0.42764 1.72791,-1.29174 2,-2.28515 0.19715,-0.72005 0.16748,-1.50764 -0.14257,-2.24805 l -28.59766,-68.29492 c -0.55334,-1.32143 -1.83574,-2.1213 -3.18555,-2.12696 z m 1.71094,4.97266 c 0.23645,8.5e-4 0.46146,0.13915 0.5586,0.37109 l 10.88281,25.99219 c -1.11826,-1.25392 -2.38652,-2.37631 -3.78125,-3.30078 -3.08992,-2.04813 -6.66851,-3.18758 -10.3418,-3.29492 -1.66004,-0.0485 -3.24315,0.1027 -4.95312,0.47461 -0.52887,0.11486 -2.32245,0.66574 -2.82422,0.86718 -2.48319,0.99602 -4.58335,2.33825 -6.46094,4.12891 -1.0125,0.96556 -2.01324,2.15991 -2.7832,3.32227 -2.57774,3.8914 -3.66923,8.4847 -3.16602,13.07812 l -11.20703,-26.76367 c -0.1295,-0.30925 0.0169,-0.66542 0.32617,-0.79492 l 33.51367,-14.03321 c 0.0773,-0.0324 0.15752,-0.0471 0.23633,-0.0469 z m -3.35156,21.40039 c 4.17257,-0.0159 8.22319,1.40011 11.48047,4.04688 0.42516,0.34513 0.75743,0.6393 0.74609,0.6582 -0.004,0.008 -0.11375,0.0674 -0.24414,0.13086 -1.46237,0.71671 -2.59508,1.90395 -3.85937,4.04101 -0.26034,0.44005 -0.42966,0.74327 -1.2793,2.29493 -0.85686,1.56487 -1.16985,2.10702 -1.4707,2.55078 -0.61085,0.901 -1.31637,1.60092 -2.03516,2.01757 -0.13081,0.0741 -0.33233,0.16421 -0.58594,0.25 -0.62105,0.21544 -1.03945,0.24992 -1.68945,0.14258 -0.76592,-0.12661 -1.54174,-0.49289 -2.34961,-1.10937 -0.5904,-0.4506 -0.87597,-0.73547 -1.70899,-1.70703 -1.1969,-1.39597 -1.6185,-1.82987 -2.30078,-2.3711 -0.29862,-0.23671 -0.44607,-0.33566 -0.80664,-0.53711 -0.3408,-0.19083 -0.32901,-0.16755 -0.3789,-0.71093 -0.0378,-0.41061 -0.0835,-0.5302 -0.24414,-0.63868 -0.16033,-0.10809 -0.26536,-0.12093 -0.51368,-0.0566 -0.43521,0.11108 -0.85702,0.41449 -1.11328,0.79883 l -0.11718,0.17578 -0.26954,0.0391 c -0.19717,0.0299 -0.3753,0.0795 -0.67578,0.17969 -0.48215,0.16419 -0.61865,0.24062 -1.15039,0.64453 -0.6093,0.46341 -0.61698,0.46459 -1.48828,0.75977 -0.50763,0.17046 -0.83993,0.29405 -0.99414,0.37305 -0.73859,0.37186 -1.30211,0.91842 -1.64453,1.59375 -0.2245,0.44254 -0.31888,0.79826 -0.33398,1.27539 -0.006,0.22771 9.7e-4,0.28558 0.0801,0.54297 0.11891,0.38861 0.21012,0.50872 0.51172,0.66406 0.18936,0.0975 0.22929,0.13006 0.31055,0.25781 0.30557,0.47811 0.86664,0.53294 1.56445,0.15234 0.22564,-0.12298 0.5638,-0.35272 0.74219,-0.5039 l 0.0957,-0.0801 0.22071,0.0312 c 0.31003,0.0416 0.88111,0.0537 1.25,0.0234 0.49818,-0.0393 0.78951,-0.0917 1.36328,-0.24024 0.29544,-0.0771 0.5908,-0.14094 0.65429,-0.14453 0.29035,-0.0111 0.47992,0.19343 1.03321,1.11133 0.85168,1.41317 1.90833,2.65881 3.125,3.68359 2.91791,2.45859 6.22974,3.32335 9.52148,2.48633 l 0.33399,-0.0879 0.25586,0.21094 c 0.33652,0.27677 0.77858,0.75277 1.02539,1.10351 0.7008,0.99617 1.02865,2.09013 0.98632,3.30079 -0.0242,0.69804 -0.14581,1.71133 -0.28906,2.4082 l -0.0742,0.35937 0.17578,0.58789 c 0.099,0.32312 0.19828,0.71047 0.22852,0.85938 0.14513,0.76596 0.24515,1.59039 0.27539,2.26953 l 0.0156,0.33594 -0.32031,0.1582 c -0.40184,0.19805 -1.10611,0.50363 -1.57031,0.68164 l -0.002,-0.002 c -0.41103,0.15885 -1.84589,0.59515 -2.27539,0.69531 -6.43507,1.49095 -13.12929,-0.59836 -17.54688,-5.47656 -1.33625,-1.47564 -2.4523,-3.21587 -3.22266,-5.02539 -0.59811,-1.40527 -1.04521,-2.99035 -1.26367,-4.48047 -0.92942,-6.33933 1.5577,-12.69746 6.53711,-16.71094 1.52296,-1.22755 3.15073,-2.15914 5.00977,-2.86523 0.56405,-0.21423 2.10696,-0.66264 2.65234,-0.77149 0.58689,-0.11754 1.30314,-0.22758 1.83008,-0.28125 0.59914,-0.0613 1.19689,-0.0934 1.79297,-0.0957 z m -9.2832,11.65039 c 0.29351,-0.0336 0.71989,0.0687 0.7539,0.18359 0.0155,0.0495 0.007,0.0611 -0.10547,0.12305 -0.0374,0.0208 -0.0603,0.0515 -0.0527,0.0742 0.0401,0.12971 -0.10512,0.45201 -0.2461,0.54687 -0.19463,0.13154 -0.33717,0.15927 -0.54882,0.10938 -0.14249,-0.034 -0.27736,-0.12616 -0.3711,-0.25391 -0.0393,-0.0548 -0.073,-0.0702 -0.1289,-0.0664 -0.17235,0.0174 -0.18806,-0.084 -0.041,-0.26953 0.19669,-0.25021 0.4768,-0.41703 0.74024,-0.44727 z m 29.0371,5.1582 9.0254,21.55469 0.51367,1.22461 c 0.12945,0.30913 -0.0151,0.66548 -0.32422,0.79492 l -33.51563,14.03321 c -0.30925,0.12949 -0.66547,-0.0151 -0.79492,-0.32422 l -9.8457,-23.51172 c 1.39657,1.70624 3.07332,3.18414 5.02734,4.38672 0.45744,0.2815 1.524,0.84725 2.01367,1.06836 4.17521,1.88262 8.6156,2.28783 13.07227,1.19336 0.41242,-0.10167 2.10698,-0.65515 2.50977,-0.82032 1.55973,-0.63889 2.91346,-1.38732 4.22265,-2.33398 1.88497,-1.36301 3.57654,-3.12208 4.85156,-5.04688 2.41271,-3.64239 3.52731,-7.90614 3.24414,-12.21875 z m -2.10156,5.55664 c 0.008,0.024 -0.11443,0.49179 -0.23047,0.88282 -0.2121,0.7135 -0.46987,1.41327 -0.77148,2.10156 -0.22587,0.51507 -0.38748,0.84312 -0.41016,0.82422 -0.0506,-0.0443 -0.61559,-0.90943 -0.85937,-1.31641 -0.37006,-0.61712 -0.83701,-1.53019 -0.81055,-1.58008 0.003,-0.009 0.35355,-0.10851 0.77735,-0.22265 0.42405,-0.11339 1.11457,-0.31826 1.53515,-0.45508 0.42146,-0.13417 0.7673,-0.24193 0.76953,-0.23438 z m -5.99804,3.26758 c 0.009,-0.003 0.0399,0.0279 0.0664,0.0684 0.0285,0.0402 0.27721,0.36713 0.55274,0.72656 0.2756,0.35925 0.74312,0.97587 1.03906,1.3711 0.56269,0.7511 0.67061,0.86566 1.04883,1.11133 0.0744,0.0476 0.12975,0.10011 0.12695,0.11523 -0.0129,0.0493 -0.64188,0.81376 -0.95898,1.16602 -0.65432,0.72687 -1.35586,1.38964 -2.14454,2.02343 h -0.002 c -0.25534,0.20523 -0.47096,0.37473 -0.47851,0.37696 -0.0265,0.008 -0.0309,-0.0344 -0.0195,-0.32618 0.0352,-0.94411 0.15377,-1.96935 0.33594,-2.91601 0.13622,-0.70779 0.33192,-2.39408 0.39844,-3.42578 0.0113,-0.15723 0.0276,-0.28883 0.0352,-0.29102 z m 5.0371,22.04102 c 0.74486,0.0304 1.44547,0.531 1.75391,1.26758 0.41116,0.98187 -0.053,2.11413 -1.03515,2.52539 l -5.94922,2.49218 c -0.98199,0.41121 -2.11424,-0.0533 -2.52539,-1.03515 -0.41126,-0.98211 0.0532,-2.11614 1.03515,-2.52735 l 5.97461,-2.58789 c 0.24553,-0.10281 0.49781,-0.14489 0.74609,-0.13476 z"
             transform="matrix(71.531274,-29.95369,-29.95369,-71.531274,-35110.973,62220.811)" />
        </g>
      </g>
    </g>
    <g
       id="g1395"
       style="stroke:#ffffff;stroke-width:4;stroke-miterlimit:4;stroke-dasharray:none;stroke-opacity:1"
       transform="matrix(0.18846591,0,0,0.18846591,210.5832,33.923577)">
      <path
         id="path1377"
         style="color:#000000;font-style:normal;font-variant:normal;font-weight:normal;font-stretch:normal;font-size:medium;line-height:normal;font-family:sans-serif;font-variant-ligatures:normal;font-variant-position:normal;font-variant-caps:normal;font-variant-numeric:normal;font-variant-alternates:normal;font-variant-east-asian:normal;font-feature-settings:normal;font-variation-settings:normal;text-indent:0;text-align:start;text-decoration:none;text-decoration-line:none;text-decoration-style:solid;text-decoration-color:#000000;letter-spacing:normal;word-spacing:normal;text-transform:none;writing-mode:lr-tb;direction:ltr;text-orientation:mixed;dominant-baseline:auto;baseline-shift:baseline;text-anchor:start;white-space:normal;shape-padding:0;shape-margin:0;inline-size:0;clip-rule:nonzero;display:inline;overflow:visible;visibility:visible;opacity:1;isolation:auto;mix-blend-mode:normal;color-interpolation:sRGB;color-interpolation-filters:linearRGB;solid-color:#000000;solid-opacity:1;vector-effect:none;fill:#ffffff;fill-opacity:1;fill-rule:nonzero;stroke:none;stroke-width:2.67528;stroke-linecap:butt;stroke-linejoin:miter;stroke-miterlimit:4;stroke-dasharray:none;stroke-dashoffset:0;stroke-opacity:1;color-rendering:auto;image-rendering:auto;shape-rendering:auto;text-rendering:auto;enable-background:accumulate;stop-color:#000000;stop-opacity:1"
         d="m 843.75,128.59961 c -0.37784,7e-4 -0.74987,0.0248 -1.11133,0.0742 -2.44921,0.33484 -4.40129,1.52165 -5.59375,3.00586 -2.09428,-1.08847 -4.44548,-0.99842 -6.32617,-0.16992 -1.72355,0.75926 -3.18403,2.02271 -3.88477,3.60351 -6.00979,-1.88974 -11.76156,2.18165 -11.79492,7.18164 -1.47094,0.0957 -2.84706,0.45605 -3.89062,1.28906 -1.05843,0.84488 -1.6808,2.06941 -2.05274,3.4043 -1.76415,-0.0284 -3.58143,0.78295 -5.10351,2.07617 -1.68014,1.42752 -2.90105,3.65925 -2.72461,6.19532 -0.25478,0.14606 -0.48998,0.19529 -0.79102,0.41406 -0.69888,0.50788 -1.4742,1.21875 -2.10937,2.16992 -1.19359,1.7874 -1.65926,4.54489 -0.15625,7.58398 -0.37742,1.10013 -0.4872,2.17437 -0.16602,3.08789 0.38592,1.09767 1.18924,1.87498 2.03125,2.41016 1.68403,1.07036 3.60663,1.37242 4.68555,1.44336 2.66207,0.17503 10.70415,-0.0105 18.45508,-0.0898 3.87546,-0.0397 7.6405,-0.0563 10.49609,0.002 1.42779,0.0291 2.63173,0.0788 3.48242,0.14844 0.35844,0.0293 0.61212,0.0614 0.82031,0.0937 -0.008,0.13439 -0.0172,0.30395 -0.11328,0.5957 -0.24044,0.73072 -0.80253,1.76884 -1.45703,2.76953 -1.309,2.00139 -2.91016,3.85199 -3.08398,4.05469 l -1.67969,1.96094 2.57031,0.24218 c 8.28112,0.78393 15.49044,-4.00584 18.69727,-9.60742 0.4992,-0.0196 1.39746,-0.0352 2.88086,-0.0488 1.78412,-0.0163 4.01589,-0.0618 6.30273,-0.24609 2.28686,-0.18431 4.6262,-0.50278 6.67188,-1.10547 2.04568,-0.60269 3.87394,-1.46084 4.93945,-3.06055 1.13533,-1.70454 1.6785,-4.06205 1.45703,-6.5664 -0.18996,-2.14817 -1.03652,-4.39419 -2.6582,-6.31055 1.52054,-2.0154 1.75272,-4.95099 0.86719,-7.8125 -0.99299,-3.20872 -3.44758,-6.37435 -7.29883,-8.17383 -0.38255,-2.30219 -1.20345,-4.12378 -2.45117,-5.30468 -1.39488,-1.32017 -3.14391,-1.89625 -4.8086,-2.06836 -2.85008,-0.29467 -5.31584,0.45188 -6.72656,0.94922 -2.72887,-2.97163 -5.73012,-4.19635 -8.375,-4.19141 z m 0.0977,2.66211 c 0.2894,-0.004 0.58579,0.0117 0.88867,0.0488 v -0.002 c 1.81725,0.22279 3.86521,1.24557 5.98633,3.83399 l 0.61328,0.75 0.90429,-0.34961 c 0.8971,-0.34715 3.82227,-1.30111 6.33789,-1.04102 1.25782,0.13005 2.3712,0.52722 3.24219,1.35157 0.87099,0.82434 1.58226,2.13097 1.82227,4.39257 l 0.084,0.79688 0.74414,0.30078 c 3.47644,1.40879 5.55611,4.15822 6.38477,6.83594 0.82866,2.67772 0.28274,5.08599 -0.87891,6 l -1.22265,0.96093 1.13281,1.06641 c 1.69371,1.59048 2.47851,3.59738 2.65039,5.54102 0.17188,1.94363 -0.32648,3.80421 -1.02149,4.84765 -0.47356,0.71099 -1.7125,1.45972 -3.46679,1.97657 -1.75429,0.51684 -3.94745,0.83004 -6.12891,1.00585 -2.18146,0.17582 -4.35527,0.22021 -6.11523,0.23633 -1.75996,0.0161 -2.9559,-0.027 -3.79102,0.084 l -0.70117,0.0937 -0.31641,0.63086 c -2.14644,4.25843 -7.60236,8.43838 -13.9414,8.87695 0.62746,-0.79074 0.91409,-1.05358 1.6289,-2.14648 0.72136,-1.10292 1.38356,-2.25514 1.75977,-3.39844 0.1881,-0.57165 0.31615,-1.14858 0.26953,-1.7793 -0.0466,-0.63072 -0.34646,-1.36304 -0.92773,-1.82422 -0.55219,-0.4381 -0.78914,-0.37975 -1.14063,-0.44336 -0.35149,-0.0636 -0.75456,-0.10751 -1.23047,-0.14648 -0.95181,-0.0779 -2.18974,-0.12653 -3.64648,-0.15625 -2.91349,-0.0594 -6.69262,-0.0417 -10.57813,-0.002 -7.77101,0.0795 -16.11622,0.23625 -18.2539,0.0957 -0.67364,-0.0443 -2.40783,-0.38353 -3.42383,-1.0293 -0.508,-0.32288 -0.81451,-0.67453 -0.94336,-1.04101 -0.12885,-0.36649 -0.16029,-0.84973 0.25,-1.72461 l 0.29492,-0.63086 -0.34766,-0.60547 c -1.47065,-2.55092 -1.00138,-4.09764 -0.17187,-5.33985 0.41476,-0.6211 0.96479,-1.13393 1.45508,-1.49023 0.4903,-0.3563 1.03869,-0.56491 0.92187,-0.53516 l 1.26953,-0.32421 -0.29687,-1.2754 c -0.43544,-1.86968 0.41494,-3.43873 1.78125,-4.5996 1.3663,-1.16088 3.25203,-1.59651 3.95117,-1.38868 l 1.58984,0.47266 0.12696,-1.65234 c 0.0952,-1.24506 0.61393,-2.21329 1.42578,-2.86133 0.81184,-0.64804 1.94753,-1.00558 3.44726,-0.8125 l 1.91993,0.24805 -0.44727,-1.88282 c -0.84789,-3.56655 3.94068,-7.87968 9.41406,-5.20898 l 1.74024,0.84765 0.17773,-1.92773 c 0.0817,-0.87698 1.17791,-2.29739 2.72852,-2.98047 1.5506,-0.68307 3.28489,-0.72527 4.79687,0.53516 l 1.33399,1.11328 0.73437,-1.57813 c 0.40101,-0.86081 2.14394,-2.40123 4.33789,-2.70117 0.27425,-0.0375 0.5563,-0.0606 0.84571,-0.0644 z m -1.42578,4.89844 c -0.79048,-0.0504 -1.54989,0.12576 -2.17969,0.43164 -1.3792,0.79688 -2.40607,1.95389 -3.07227,3.20312 -0.26284,-0.0629 -0.52545,-0.11146 -0.7832,-0.13086 -2.78597,0 -5.53999,1.20074 -6.86524,3.54883 -1.77172,-0.49704 -3.62588,-0.29655 -5.15625,0.51563 -1.39528,0.74048 -2.52732,2.02664 -3.00976,3.62695 -0.44845,-0.0679 -0.90314,-0.12005 -1.39258,-0.11133 -1.23325,0.022 -2.58583,0.2868 -3.86328,0.86133 -1.27745,0.57453 -2.49718,1.47663 -3.28125,2.80859 -0.62036,1.05386 -0.91546,2.3634 -0.78906,3.81641 -2.3584,1.17733 -4.80773,3.82534 -2.9375,6.07617 1.19346,-5.08248 9.08963,-5.44981 10.4414,-0.92383 0.78085,-3.92258 -2.34637,-5.63232 -4.85937,-5.74804 -0.0161,-0.76084 0.15489,-1.35998 0.45117,-1.86329 0.43258,-0.73485 1.16989,-1.31965 2.07031,-1.7246 0.90041,-0.40496 1.94725,-0.61147 2.81641,-0.62696 0.86916,-0.0155 1.5585,0.2442 1.60937,0.2832 l 2.21289,1.69532 -0.0605,-2.78516 c -0.0303,-1.41179 0.70449,-2.41583 1.8457,-3.02148 1.14121,-0.60565 2.65015,-0.69699 3.94531,-0.0488 l 1.4668,0.73437 0.42383,-1.58398 c 0.43886,-1.63789 2.62728,-2.9621 4.80469,-2.85742 2.1774,0.10467 4.18237,1.25122 4.56054,5.07031 1.77923,-2.47921 0.6576,-4.96286 -1.23437,-6.42969 0.45463,-0.80404 1.13985,-1.57671 1.99414,-2.07031 1.17021,-0.67614 2.62022,-0.93635 4.5957,-0.16406 -1.03359,-1.78531 -2.43645,-2.49808 -3.7539,-2.58203 z m 12.34374,0.5332 c -1.33177,0.1551 -3.4908,0.47019 -3.7832,3.88476 0.83982,-0.44894 2.34355,-1.19772 3.80664,-1.21093 0.85557,-0.008 1.70792,0.21558 2.55078,0.89648 -0.2704,-0.005 -0.55088,-0.0655 -0.8164,-0.0488 -1.29139,0.2451 -2.54149,1.39997 -2.33008,3.66016 0.45351,-0.53452 1.31273,-0.91589 2.49805,-0.99023 1.18531,-0.0744 2.62845,0.17215 3.9707,0.70507 2.68451,1.06586 4.76433,3.11288 4.68945,5.56446 1.9555,-4.13071 -1.63769,-7.19302 -3.70117,-8.05078 -0.12849,-0.051 -0.26493,-0.0663 -0.39453,-0.11329 -1.75152,-3.10217 -4.28365,-4.31679 -6.49024,-4.29687 z m -6.01562,9.75586 c -2.28773,-0.0331 -3.74545,1.32531 -3.97656,3.65039 1.03029,-1.21262 3.38861,-1.48239 5.5625,-0.64258 2.17389,0.83981 3.81608,2.54012 3.74023,4.74414 1.99742,-3.9569 -0.75264,-6.41398 -2.77539,-7.23828 -0.93236,-0.33605 -1.7882,-0.50263 -2.55078,-0.51367 z"
         transform="matrix(1.4951726,0,0,1.4951726,-1078.4365,-309.70544)" />
    </g>
  </g>
</svg>
