<?xml version="1.0" encoding="UTF-8"?>
<svg id="Ebene_1" xmlns="http://www.w3.org/2000/svg" version="1.1" viewBox="0 0 841.89 595.28">
  <!-- Generator: Adobe Illustrator 30.0.0, SVG Export Plug-In . SVG Version: 2.1.1 Build 123)  -->
  <defs>
    <style>
      .st0 {
        fill: #164194;
      }

      .st1 {
        fill: #009fe3;
      }

      .st2 {
        fill: #008bd2;
      }

      .st3 {
        fill: #005ca9;
      }

      .st4 {
        fill: #0075bf;
      }
    </style>
  </defs>
  <path class="st0" d="M274.46,325.88c.14.29.36.54.65.76.29.22.69.33,1.2.33h.54c.51,0,.91-.11,1.2-.33.29-.22.51-.47.65-.76l19.93-40.95c.36-.72.4-1.34.11-1.85-.29-.51-.84-.76-1.63-.76h-8.5c-.58,0-1.09.05-1.53.16-.43.11-.8.45-1.09,1.03l-9.37,20.26h-.22l-8.82-20.26c-.15-.36-.36-.65-.65-.87s-.73-.33-1.31-.33h-9.48c-.8,0-1.34.26-1.63.76-.29.51-.26,1.13.11,1.85l19.82,40.95Z"/>
  <path class="st0" d="M305.94,323.81c0,.58.2,1.07.6,1.47.4.4.89.6,1.47.6h9.04c.58,0,1.07-.2,1.47-.6.4-.4.6-.89.6-1.47v-39.43c0-.58-.2-1.07-.6-1.47-.4-.4-.89-.6-1.47-.6h-9.04c-.58,0-1.07.2-1.47.6-.4.4-.6.89-.6,1.47v39.43Z"/>
  <path class="st0" d="M334.48,312.92c0,4.43.96,7.88,2.89,10.35,1.92,2.47,4.99,3.7,9.2,3.7,1.31,0,2.71-.13,4.19-.38,1.49-.26,2.85-.54,4.08-.87,1.23-.33,2.29-.65,3.16-.98.87-.33,1.38-.53,1.53-.6.58-.22.98-.56,1.2-1.03.22-.47.22-1,0-1.58l-2.18-6.86c-.36-1.23-1.16-1.63-2.4-1.2-.58.22-1.38.47-2.4.76-1.02.29-2,.43-2.94.43-.87,0-1.65-.2-2.34-.6-.69-.4-1.04-1.36-1.04-2.89v-17.43h9.59c.58,0,1.07-.2,1.47-.6.4-.4.6-.89.6-1.47v-7.3c0-1.38-.69-2.07-2.07-2.07h-9.59v-12.2c0-.58-.18-1.07-.54-1.47-.36-.4-.84-.6-1.42-.6l-8.93.11c-.58,0-1.07.2-1.47.6-.4.4-.6.89-.6,1.47v12.09h-3.7c-.58,0-1.05.2-1.42.6-.36.4-.54.89-.54,1.47v7.3c0,.58.18,1.07.54,1.47.36.4.83.6,1.42.6h3.7v19.17Z"/>
  <path class="st0" d="M369.76,323.81c0,.58.2,1.07.6,1.47.4.4.89.6,1.47.6h8.39c1.67,0,2.5-.69,2.5-2.07v-26.36c.36-.8,1.2-1.74,2.51-2.83,1.31-1.09,3.05-1.63,5.23-1.63.58,0,1.22.09,1.91.27.69.18,1.11.31,1.25.38.44.22.89.24,1.36.05.47-.18.85-.53,1.14-1.04l4.03-7.08c.29-.65.27-1.25-.05-1.8-.33-.54-.91-1.02-1.74-1.42-.83-.4-1.82-.69-2.94-.87-1.13-.18-2.34-.27-3.65-.27-1.67,0-3.18.26-4.52.76-1.34.51-2.54,1.11-3.59,1.8-1.05.69-1.92,1.44-2.61,2.23-.69.8-1.22,1.45-1.58,1.96l-1.53-4.25c-.36-.94-1.02-1.42-1.96-1.42h-4.14c-.58,0-1.07.2-1.47.6s-.6.89-.6,1.47v39.43Z"/>
  <path class="st0" d="M435.99,303.99c0,1.53-.27,2.98-.82,4.36-.54,1.38-1.29,2.58-2.23,3.59-.95,1.02-2.05,1.82-3.32,2.4-1.27.58-2.63.87-4.08.87-2.98,0-5.46-1.09-7.46-3.27-2-2.18-3-4.83-3-7.95,0-1.53.27-2.96.82-4.3.54-1.34,1.29-2.51,2.23-3.49.94-.98,2.05-1.76,3.32-2.34,1.27-.58,2.63-.87,4.09-.87s2.81.29,4.08.87c1.27.58,2.38,1.36,3.32,2.34.94.98,1.69,2.14,2.23,3.49.54,1.34.82,2.78.82,4.3M447.86,303.99c0-3.05-.58-5.95-1.74-8.71-1.16-2.76-2.76-5.17-4.79-7.24-2.03-2.07-4.41-3.72-7.13-4.96-2.72-1.23-5.61-1.85-8.66-1.85s-5.94.62-8.66,1.85c-2.72,1.23-5.1,2.89-7.13,4.96-2.03,2.07-3.63,4.48-4.79,7.24-1.16,2.76-1.74,5.66-1.74,8.71s.58,6.08,1.74,8.88c1.16,2.8,2.76,5.23,4.79,7.3,2.03,2.07,4.41,3.72,7.13,4.96,2.72,1.23,5.61,1.85,8.66,1.85s5.93-.62,8.66-1.85c2.72-1.23,5.1-2.89,7.13-4.96,2.03-2.07,3.63-4.5,4.79-7.3,1.16-2.79,1.74-5.75,1.74-8.88"/>
  <path class="st1" d="M763.45,324.01c1.34,2.03,4.01,3.05,8.01,3.05,2.25,0,4.61-.44,7.08-1.31,2.47-.87,4.28-1.67,5.45-2.4,1.16-.72,1.42-1.63.76-2.72l-1.63-2.72c-.65-1.02-1.52-1.23-2.61-.65-2.98,1.6-5.63,2.4-7.95,2.4-1.31,0-2.23-.34-2.78-1.04-.54-.69-.82-2.09-.82-4.19v-25.49h12.64c.58,0,1.07-.2,1.47-.6.4-.4.6-.89.6-1.47v-2.4c0-1.38-.69-2.07-2.07-2.07h-12.64v-12.31c0-.58-.2-1.07-.6-1.47-.4-.4-.85-.6-1.36-.6l-3.49.22c-.58,0-1.07.22-1.47.65-.4.43-.6.91-.6,1.42v12.09h-5.56c-1.38,0-2.07.69-2.07,2.07v2.4c0,.58.2,1.07.6,1.47.4.4.89.6,1.47.6h5.56v26.14c0,3.92.67,6.9,2.01,8.93M713.89,320.53c4.39,4.36,9.64,6.54,15.74,6.54,3.56,0,6.79-.84,9.69-2.51,2.9-1.67,5.23-3.88,6.97-6.64.73-1.16.47-2.18-.76-3.05l-1.2-.87c-1.16-.87-2.25-.8-3.27.22-.51.58-1.14,1.22-1.91,1.91-.76.69-1.54,1.31-2.34,1.85-.8.54-1.83,1-3.1,1.36-1.27.36-2.67.54-4.19.54-4.07,0-7.48-1.53-10.24-4.57-2.76-3.05-4.14-6.75-4.14-11.11s1.4-8.02,4.19-11c2.79-2.98,6.23-4.46,10.29-4.46s7.33,1.52,10.02,4.57c.36.29.67.56.93.82.25.26.56.36.92.33.36-.04.8-.27,1.31-.71l2.07-1.74c1.16-.87,1.31-1.89.44-3.05-3.99-5.08-9.19-7.62-15.58-7.62-6.03,0-11.27,2.25-15.74,6.75-4.46,4.5-6.7,9.91-6.7,16.23s2.2,11.87,6.59,16.23M669.67,291.39c2.58-2.29,5.68-3.43,9.31-3.43,3.27,0,6.08,1.2,8.44,3.59,2.36,2.4,3.61,5.19,3.76,8.39h-25.92c.36-3.41,1.83-6.26,4.41-8.55M663.51,320.47c3.92,4.39,9.08,6.59,15.47,6.59s11.8-1.67,16.01-5.01c.73-.58,1.09-1.05,1.09-1.42s-.22-.83-.65-1.42l-1.85-2.5c-.65-.51-1.09-.73-1.31-.65-.22.07-.8.36-1.74.87-3.56,2.18-7.15,3.27-10.78,3.27s-7.1-1.43-9.97-4.3c-2.87-2.87-4.41-6.16-4.63-9.86h31.37c1.16,0,1.81-.62,1.96-1.85.14-1.02.22-2,.22-2.94,0-5.74-1.85-10.49-5.55-14.27-3.7-3.77-8.42-5.66-14.16-5.66-6.39,0-11.55,2.22-15.47,6.64-3.92,4.43-5.88,9.84-5.88,16.23s1.96,11.89,5.88,16.28M609.66,325.32c.4.43.89.65,1.47.65h3.38c.51,0,.98-.22,1.42-.65.43-.44.65-.91.65-1.42v-29.08l1.74-1.53c1.09-1.02,2.81-2.05,5.17-3.1,2.36-1.05,4.74-1.58,7.13-1.58,3.12,0,5.54,1.03,7.24,3.1,1.71,2.07,2.56,5.14,2.56,9.2v22.98c0,.51.2.98.6,1.42.4.43.89.65,1.47.65h3.49c.58,0,1.07-.22,1.47-.65.4-.44.6-.91.6-1.42v-22.98c0-13.07-5.63-19.6-16.88-19.6-2.69,0-5.3.47-7.84,1.42-2.54.94-4.43,1.92-5.66,2.94l-1.74,1.42-.98-3.38c-.22-.87-.8-1.31-1.74-1.31h-2.07c-.58,0-1.07.22-1.47.65-.4.43-.6.91-.6,1.42v39.43c0,.51.2.98.6,1.42M557.92,325.32c.4.43.89.65,1.47.65h3.38c.51,0,.98-.22,1.42-.65.43-.44.65-.91.65-1.42v-29.08l1.74-1.53c1.09-1.02,2.81-2.05,5.17-3.1,2.36-1.05,4.74-1.58,7.13-1.58,3.12,0,5.54,1.03,7.24,3.1,1.7,2.07,2.56,5.14,2.56,9.2v22.98c0,.51.2.98.6,1.42.4.43.89.65,1.47.65h3.49c.58,0,1.07-.22,1.47-.65.4-.44.6-.91.6-1.42v-22.98c0-13.07-5.63-19.6-16.88-19.6-2.69,0-5.3.47-7.84,1.42-2.54.94-4.43,1.92-5.66,2.94l-1.74,1.42-.98-3.38c-.22-.87-.8-1.31-1.74-1.31h-2.07c-.58,0-1.07.22-1.47.65-.4.43-.6.91-.6,1.42v39.43c0,.51.2.98.6,1.42M515.44,293.08c2.72-3.05,6.08-4.58,10.08-4.58s7.35,1.53,10.08,4.58c2.72,3.05,4.08,6.72,4.08,11s-1.36,8.19-4.08,11.27c-2.72,3.09-6.08,4.63-10.08,4.63s-7.35-1.54-10.08-4.63c-2.72-3.09-4.08-6.84-4.08-11.27s1.36-7.95,4.08-11M510.16,320.31c4.21,4.5,9.33,6.75,15.36,6.75s11.15-2.25,15.36-6.75c4.21-4.5,6.32-9.91,6.32-16.23s-2.11-11.51-6.32-16.01c-4.21-4.5-9.33-6.75-15.36-6.75s-11.15,2.25-15.36,6.75c-4.21,4.5-6.32,9.84-6.32,16.01s2.11,11.73,6.32,16.23M462.29,320.53c4.39,4.36,9.64,6.54,15.74,6.54,3.56,0,6.79-.84,9.69-2.51,2.9-1.67,5.23-3.88,6.97-6.64.73-1.16.47-2.18-.76-3.05l-1.2-.87c-1.16-.87-2.25-.8-3.27.22-.51.58-1.14,1.22-1.91,1.91-.76.69-1.54,1.31-2.34,1.85-.8.54-1.83,1-3.1,1.36-1.27.36-2.67.54-4.19.54-4.07,0-7.48-1.53-10.24-4.57-2.76-3.05-4.14-6.75-4.14-11.11s1.4-8.02,4.19-11c2.79-2.98,6.23-4.46,10.29-4.46s7.33,1.52,10.02,4.57c.36.29.67.56.93.82.25.26.56.36.93.33.36-.04.8-.27,1.31-.71l2.07-1.74c1.16-.87,1.31-1.89.44-3.05-3.99-5.08-9.19-7.62-15.58-7.62-6.03,0-11.27,2.25-15.74,6.75-4.47,4.5-6.7,9.91-6.7,16.23s2.2,11.87,6.59,16.23"/>
  <path class="st0" d="M307.47,271.5c2.79,2.79,7.33,2.8,10.12,0,2.79-2.8,2.79-7.33,0-10.12-2.8-2.79-7.33-2.79-10.12,0-2.8,2.8-2.8,7.33,0,10.12"/>
  <path class="st4" d="M145.72,305.05c4.19-4.19,4.19-10.99,0-15.19-4.19-4.19-10.99-4.19-15.19,0-4.19,4.19-4.19,10.99,0,15.19,4.19,4.19,10.99,4.19,15.19,0"/>
  <path class="st2" d="M102.77,305.05c4.19-4.19,4.19-10.99,0-15.19-4.19-4.19-10.99-4.19-15.19,0-4.19,4.19-4.19,10.99,0,15.19,4.19,4.19,10.99,4.19,15.19,0"/>
  <path class="st2" d="M112.17,271.5c2.79-2.79,2.8-7.33,0-10.12-2.8-2.79-7.33-2.79-10.12,0-2.79,2.8-2.79,7.33,0,10.12,2.8,2.8,7.33,2.8,10.12,0"/>
  <path class="st4" d="M142.18,225.38c2.24-2.24,2.24-5.86,0-8.1-2.24-2.24-5.86-2.24-8.1,0-2.24,2.24-2.24,5.86,0,8.1,2.24,2.24,5.86,2.24,8.1,0"/>
  <path class="st0" d="M191.95,249.36c3.16,0,5.73-2.56,5.73-5.73s-2.56-5.73-5.73-5.73-5.73,2.56-5.73,5.73,2.56,5.73,5.73,5.73"/>
  <path class="st0" d="M210.2,301.51c2.24,2.24,5.86,2.24,8.1,0,2.24-2.24,2.24-5.86,0-8.1-2.24-2.24-5.86-2.24-8.1,0-2.24,2.24-2.24,5.86,0,8.1"/>
  <path class="st0" d="M186.22,351.28c0,3.16,2.56,5.73,5.73,5.73s5.73-2.56,5.73-5.73-2.56-5.73-5.73-5.73-5.73,2.56-5.73,5.73"/>
  <path class="st4" d="M142.18,377.63c2.24-2.24,2.24-5.86,0-8.1-2.24-2.24-5.86-2.24-8.1,0-2.24,2.24-2.24,5.86,0,8.1,2.24,2.24,5.86,2.24,8.1,0"/>
  <path class="st1" d="M84.3,357.01c3.16,0,5.73-2.56,5.73-5.73s-2.56-5.73-5.73-5.73-5.73,2.56-5.73,5.73,2.56,5.73,5.73,5.73"/>
  <path class="st1" d="M57.96,301.51c2.24,2.24,5.86,2.24,8.1,0,2.24-2.24,2.24-5.86,0-8.1-2.24-2.24-5.86-2.24-8.1,0-2.24,2.24-2.24,5.86,0,8.1"/>
  <path class="st1" d="M78.57,243.63c0,3.16,2.56,5.73,5.73,5.73s5.73-2.56,5.73-5.73-2.56-5.73-5.73-5.73-5.73,2.56-5.73,5.73"/>
  <path class="st2" d="M112.17,333.54c2.79-2.79,2.8-7.33,0-10.12-2.8-2.79-7.33-2.79-10.12,0-2.79,2.8-2.79,7.33,0,10.12,2.8,2.8,7.33,2.8,10.12,0"/>
  <path class="st3" d="M168.67,273.59c3.95,0,7.16-3.2,7.16-7.16s-3.2-7.16-7.16-7.16-7.16,3.21-7.16,7.16,3.2,7.16,7.16,7.16"/>
  <path class="st3" d="M174.21,333.54c2.79-2.79,2.8-7.33,0-10.12-2.8-2.79-7.33-2.79-10.12,0-2.79,2.8-2.79,7.33,0,10.12,2.8,2.8,7.33,2.8,10.12,0"/>
  <path class="st3" d="M188.67,305.05c4.19-4.19,4.19-10.99,0-15.19-4.19-4.19-10.99-4.19-15.19,0-4.19,4.19-4.19,10.99,0,15.19,4.19,4.19,10.99,4.19,15.19,0"/>
  <path class="st4" d="M145.72,348c4.19-4.19,4.19-10.99,0-15.19-4.19-4.19-10.99-4.19-15.19,0-4.19,4.19-4.19,10.99,0,15.19,4.19,4.19,10.99,4.19,15.19,0"/>
  <path class="st4" d="M145.72,262.1c4.19-4.19,4.19-10.99,0-15.19-4.19-4.19-10.99-4.19-15.19,0-4.19,4.19-4.19,10.99,0,15.19,4.19,4.19,10.99,4.19,15.19,0"/>
</svg>